<svg xmlns="http://www.w3.org/2000/svg" xmlns:xlink="http://www.w3.org/1999/xlink" width="500" zoomAndPan="magnify" viewBox="0 0 375 374.999991" height="500" preserveAspectRatio="xMidYMid meet" version="1.0"><defs><g/><clipPath id="146bbd79d7"><path d="M 115.691406 66.542969 L 257.746094 66.542969 L 257.746094 268.824219 L 115.691406 268.824219 Z M 115.691406 66.542969 " clip-rule="nonzero"/></clipPath><clipPath id="4089b05010"><path d="M 287 134 L 318 134 L 318 198 L 287 198 Z M 287 134 " clip-rule="nonzero"/></clipPath><clipPath id="3477ecfe27"><path d="M 287.027344 198.269531 L 303.988281 131.300781 L 326.625 137.035156 L 309.664062 204 Z M 287.027344 198.269531 " clip-rule="nonzero"/></clipPath><clipPath id="93d6abb7c7"><path d="M 287.027344 198.269531 L 303.988281 131.300781 L 326.625 137.035156 L 309.664062 204 Z M 287.027344 198.269531 " clip-rule="nonzero"/></clipPath><clipPath id="dd3abafcf6"><path d="M 287.027344 198.269531 L 303.988281 131.300781 L 326.625 137.035156 L 309.664062 204 Z M 287.027344 198.269531 " clip-rule="nonzero"/></clipPath><clipPath id="8dfbfd46c2"><path d="M 55 133 L 84 133 L 84 199 L 55 199 Z M 55 133 " clip-rule="nonzero"/></clipPath><clipPath id="d44c2a9c1c"><path d="M 61.5 203.640625 L 48.859375 135.726562 L 71.816406 131.453125 L 84.457031 199.367188 Z M 61.5 203.640625 " clip-rule="nonzero"/></clipPath><clipPath id="d6549f9629"><path d="M 83.996094 199.453125 L 71.355469 131.539062 L 48.398438 135.8125 L 61.039062 203.726562 Z M 83.996094 199.453125 " clip-rule="nonzero"/></clipPath><clipPath id="592434c0d5"><path d="M 83.996094 199.453125 L 71.355469 131.539062 L 48.398438 135.8125 L 61.039062 203.726562 Z M 83.996094 199.453125 " clip-rule="nonzero"/></clipPath></defs><g clip-path="url(#146bbd79d7)"><path fill="#cecdcb" d="M 214.464844 239.957031 C 214.464844 239.957031 214.578125 239.898438 214.898438 239.898438 C 217.066406 239.898438 221.296875 242.277344 225.1875 246.828125 C 230.402344 252.933594 230.851562 257.769531 230.300781 258.457031 C 230.300781 258.457031 230.183594 258.519531 229.863281 258.519531 C 227.695312 258.519531 223.464844 256.136719 219.574219 251.582031 C 214.359375 245.480469 213.910156 240.644531 214.464844 239.957031 Z M 153.867188 251.582031 C 149.976562 256.136719 145.746094 258.519531 143.574219 258.519531 C 143.292969 258.519531 143.171875 258.46875 143.160156 258.46875 C 143.15625 258.46875 143.15625 258.46875 143.15625 258.46875 C 142.589844 257.757812 143.042969 252.925781 148.253906 246.828125 C 152.140625 242.277344 156.371094 239.898438 158.539062 239.898438 C 158.828125 239.898438 158.949219 239.945312 158.960938 239.945312 C 159.527344 240.652344 159.074219 245.484375 153.867188 251.582031 Z M 226.304688 179.390625 C 226.621094 177.703125 226.765625 176.066406 226.675781 174.5 L 229.925781 174.859375 L 230.035156 171.328125 C 230.085938 169.730469 230.15625 168.125 230.234375 166.421875 C 230.726562 155.390625 231.277344 142.972656 225.167969 133.5 C 225.769531 132.238281 226.402344 130.636719 227.105469 128.625 L 227.421875 127.714844 L 227.191406 126.78125 C 226.902344 125.589844 226.125 124.921875 225.613281 124.476562 C 224.867188 123.832031 222.601562 121.871094 225.894531 111.570312 C 228.460938 103.535156 221.6875 93.386719 219.382812 90.257812 C 219.121094 87.164062 217.785156 78.546875 210.910156 72.089844 C 206.933594 68.355469 202.378906 66.542969 196.988281 66.542969 C 193.855469 66.542969 190.40625 67.191406 186.71875 68.476562 C 183.035156 67.191406 179.585938 66.542969 176.453125 66.542969 C 171.0625 66.542969 166.507812 68.355469 162.53125 72.089844 C 155.65625 78.546875 154.320312 87.164062 154.058594 90.257812 C 151.753906 93.386719 144.976562 103.535156 147.546875 111.566406 C 150.839844 121.871094 148.570312 123.832031 147.828125 124.476562 C 147.316406 124.921875 146.539062 125.589844 146.25 126.78125 L 146.019531 127.714844 L 146.335938 128.625 C 147.035156 130.636719 147.671875 132.238281 148.273438 133.5 C 142.160156 142.972656 142.714844 155.386719 143.207031 166.414062 C 143.28125 168.117188 143.355469 169.726562 143.402344 171.328125 L 143.511719 174.859375 L 146.761719 174.5 C 146.671875 176.066406 146.820312 177.703125 147.136719 179.390625 L 115.691406 156.785156 L 117.292969 164.902344 C 118.847656 172.800781 121.964844 180.171875 132.109375 190.460938 C 140.046875 198.503906 152.085938 208.246094 171.207031 222.011719 C 167.25 225.207031 163.925781 227.722656 161.082031 229.667969 C 159.914062 229.34375 158.671875 229.179688 157.367188 229.179688 C 151.234375 229.179688 144.226562 232.917969 139.082031 238.9375 C 135.367188 243.285156 132.960938 248.359375 132.304688 253.21875 C 131.578125 258.605469 133.042969 263.148438 136.429688 266.011719 C 138.597656 267.851562 141.414062 268.824219 144.5625 268.824219 C 150.699219 268.824219 157.703125 265.082031 162.851562 259.0625 C 167.796875 253.273438 170.359375 246.183594 169.699219 240.285156 C 172.757812 236.851562 177.777344 233.976562 181.445312 232.796875 C 181.546875 232.519531 189.085938 231.945312 191.992188 232.796875 C 195.894531 234.042969 200.683594 236.851562 203.742188 240.289062 C 203.078125 246.1875 205.636719 253.265625 210.589844 259.0625 C 215.734375 265.082031 222.742188 268.824219 228.878906 268.824219 C 232.03125 268.824219 234.839844 267.851562 237.011719 266.015625 C 240.398438 263.148438 241.859375 258.605469 241.136719 253.21875 C 240.480469 248.359375 238.074219 243.285156 234.355469 238.9375 C 229.210938 232.917969 222.207031 229.179688 216.074219 229.179688 C 214.769531 229.179688 213.523438 229.34375 212.355469 229.667969 C 209.515625 227.722656 206.191406 225.207031 202.234375 222.011719 C 221.355469 208.246094 233.394531 198.503906 241.328125 190.460938 C 251.476562 180.171875 254.589844 172.800781 256.148438 164.902344 L 257.746094 156.785156 L 226.304688 179.390625 " fill-opacity="1" fill-rule="evenodd"/></g><path fill="#100f0d" d="M 221.316406 133.71875 C 222.148438 132.46875 223.058594 130.289062 224.007812 127.554688 C 223.75 126.492188 218 125.511719 222.769531 110.578125 C 225.226562 102.894531 216.167969 91.433594 216.167969 91.433594 C 216.167969 91.433594 216.082031 81.429688 208.660156 74.464844 C 204.050781 70.136719 197.503906 67.859375 186.71875 71.949219 C 175.9375 67.859375 169.390625 70.136719 164.78125 74.464844 C 157.359375 81.429688 157.273438 91.433594 157.273438 91.433594 C 157.273438 91.433594 148.214844 102.894531 150.667969 110.578125 C 155.441406 125.511719 149.695312 126.492188 149.433594 127.554688 C 150.382812 130.289062 151.289062 132.46875 152.121094 133.71875 C 144.433594 143.707031 146.289062 158.535156 146.679688 171.226562 L 151.050781 170.738281 C 148.324219 176.074219 151.410156 183.769531 154.925781 191.640625 L 157.039062 188.0625 L 160.210938 195.003906 L 161.691406 192.0625 C 162.445312 194.972656 164.425781 197.601562 168.03125 199.847656 L 169.089844 197.113281 L 173.742188 204.054688 L 175.855469 201.953125 C 179.207031 207.742188 184.253906 212.851562 186.71875 214.578125 C 189.1875 212.851562 194.234375 207.742188 197.585938 201.953125 L 199.699219 204.054688 L 204.351562 197.113281 L 205.40625 199.847656 C 209.019531 197.601562 210.996094 194.972656 211.75 192.0625 L 213.230469 195.003906 L 216.402344 188.0625 L 218.515625 191.640625 C 222.027344 183.769531 225.117188 176.074219 222.386719 170.738281 L 226.757812 171.226562 C 227.152344 158.535156 229.003906 143.707031 221.316406 133.71875 " fill-opacity="1" fill-rule="evenodd"/><path fill="#7a7b7c" d="M 200.382812 148.023438 C 195.082031 143.601562 190.628906 143.40625 186.71875 145.539062 C 182.816406 143.40625 178.359375 143.601562 173.058594 148.023438 C 166.019531 153.898438 161.757812 158.496094 152.554688 152.085938 C 162.457031 168.085938 183.113281 157.730469 186.71875 148.433594 C 190.324219 157.730469 210.984375 168.085938 220.886719 152.085938 C 211.683594 158.496094 207.421875 153.898438 200.382812 148.023438 " fill-opacity="1" fill-rule="evenodd"/><path fill="#ffffff" d="M 199.640625 161.066406 C 197.878906 162.84375 192.441406 165.367188 186.71875 165.457031 C 181 165.367188 175.5625 162.84375 173.796875 161.066406 C 169.910156 162.085938 168.089844 162.359375 165.925781 161.945312 C 165.929688 166.003906 168.671875 169.949219 173.375 171.367188 C 178.804688 171.867188 180.117188 170.5 177.730469 167.851562 C 174.929688 166.691406 174.1875 165.515625 173.789062 164.339844 C 179.164062 166.109375 181.660156 167.0625 186.71875 166.925781 C 191.78125 167.0625 194.277344 166.109375 199.652344 164.339844 C 199.253906 165.515625 198.511719 166.691406 195.707031 167.851562 C 193.324219 170.5 194.636719 171.867188 200.070312 171.367188 C 204.769531 169.949219 207.511719 166.003906 207.515625 161.945312 C 205.351562 162.359375 203.53125 162.085938 199.640625 161.066406 " fill-opacity="1" fill-rule="evenodd"/><path fill="#ffffff" d="M 217.554688 115.363281 C 221.746094 104.738281 217.367188 99.414062 213.664062 93.671875 C 213.636719 95.46875 212.917969 97 211.382812 98.21875 C 211.027344 95.203125 210.054688 94.039062 208.890625 93.46875 C 209.539062 95.960938 208.71875 98.394531 207.160156 100.804688 C 206.707031 97.707031 206.042969 95.777344 205.152344 95.121094 C 204.289062 98.742188 201.027344 102.445312 197.992188 104.210938 C 199.542969 99.136719 200.300781 94.777344 198.007812 93.027344 C 194.453125 90.304688 193.148438 95.207031 186.71875 95.328125 C 180.292969 95.207031 178.988281 90.304688 175.433594 93.027344 C 173.140625 94.777344 173.898438 99.136719 175.449219 104.210938 C 172.414062 102.445312 169.152344 98.742188 168.289062 95.121094 C 167.398438 95.777344 166.734375 97.707031 166.277344 100.804688 C 164.722656 98.394531 163.902344 95.960938 164.550781 93.46875 C 163.382812 94.039062 162.414062 95.203125 162.058594 98.21875 C 160.523438 97 159.804688 95.46875 159.773438 93.671875 C 156.074219 99.414062 151.695312 104.738281 155.886719 115.363281 C 157.527344 120.703125 155.699219 123.996094 154.390625 127.960938 C 154.875 131.511719 158.019531 136.796875 165.484375 141.921875 C 166.339844 142.113281 167.371094 140.386719 168.597656 136.550781 C 169.773438 137.078125 166.640625 145.71875 168.804688 148.84375 C 173.828125 144.808594 180.652344 139.929688 186.652344 144.140625 C 186.667969 144.164062 186.679688 144.183594 186.695312 144.203125 C 186.703125 144.199219 186.710938 144.191406 186.71875 144.1875 C 186.730469 144.191406 186.734375 144.199219 186.746094 144.203125 L 186.746094 144.171875 C 192.757812 139.90625 199.597656 144.800781 204.632812 148.84375 C 206.800781 145.71875 203.667969 137.078125 204.839844 136.550781 C 206.070312 140.386719 207.101562 142.113281 207.957031 141.921875 C 215.417969 136.796875 218.566406 131.511719 219.050781 127.960938 C 217.742188 123.996094 215.910156 120.703125 217.554688 115.363281 " fill-opacity="1" fill-rule="evenodd"/><path fill="#cecdcb" d="M 180.964844 141.667969 L 183.8125 128.578125 C 177.328125 134.992188 171.039062 143.253906 180.964844 141.667969 " fill-opacity="1" fill-rule="evenodd"/><path fill="#cecdcb" d="M 192.472656 141.667969 C 202.402344 143.253906 196.113281 134.992188 189.628906 128.578125 L 192.472656 141.667969 " fill-opacity="1" fill-rule="evenodd"/><path fill="#100f0d" d="M 196.078125 138.074219 C 191.230469 131.6875 190.3125 129.726562 188.742188 127.027344 C 188.859375 128.269531 188.003906 129.246094 186.71875 129.199219 C 185.433594 129.246094 184.582031 128.269531 184.699219 127.027344 C 183.128906 129.726562 182.210938 131.6875 177.363281 138.074219 C 175.679688 141.230469 177.894531 142.3125 181.800781 141.523438 C 183.125 141.140625 184.773438 140.578125 186.71875 139.855469 C 188.664062 140.578125 190.316406 141.140625 191.640625 141.523438 C 195.546875 142.3125 197.761719 141.230469 196.078125 138.074219 " fill-opacity="1" fill-rule="evenodd"/><path fill="#cecdcb" d="M 177.378906 115.980469 C 177.429688 118.15625 176.398438 118.8125 164.632812 121.25 C 163.539062 122.957031 162.992188 124.894531 163.628906 127.328125 C 175.980469 134.015625 183.027344 131.746094 184.292969 121.304688 L 183.265625 115.511719 L 177.378906 115.980469 " fill-opacity="1" fill-rule="evenodd"/><path fill="#cecdcb" d="M 175.433594 93.027344 C 173.140625 94.777344 173.898438 99.136719 175.449219 104.210938 C 172.414062 102.445312 169.152344 98.742188 168.289062 95.121094 C 167.398438 95.777344 166.734375 97.707031 166.277344 100.804688 C 164.722656 98.394531 163.902344 95.960938 164.550781 93.46875 C 163.382812 94.039062 162.414062 95.203125 162.058594 98.21875 C 160.523438 97 159.804688 95.46875 159.773438 93.671875 C 156.074219 99.414062 151.695312 104.738281 155.886719 115.363281 C 157.527344 120.703125 155.699219 123.996094 154.390625 127.960938 C 154.875 131.511719 158.019531 136.796875 165.484375 141.921875 C 166.339844 142.113281 167.371094 140.386719 168.597656 136.550781 L 168.578125 136.546875 C 168.476562 136.515625 167.976562 136.363281 166.496094 135.695312 C 164.808594 134.929688 159.589844 131.261719 158.515625 128.589844 C 157.441406 125.914062 160.007812 122.097656 160.007812 122.097656 C 158.824219 118.476562 158.449219 114.660156 161.65625 109.988281 C 161.65625 109.988281 159.050781 110.246094 158.59375 107.113281 C 158.132812 103.980469 160.011719 98.507812 160.011719 98.507812 C 160.335938 99.382812 160.96875 100.265625 162.730469 101.167969 L 163.582031 98.175781 C 164.261719 101.179688 166.265625 103.804688 167.625 104.578125 L 168.035156 98.785156 C 170.460938 102.191406 173.191406 104.492188 176.171875 105.890625 C 176.171875 105.890625 173.859375 96.660156 175.972656 94.222656 C 177.550781 92.402344 180.632812 94.113281 182.214844 94.304688 C 179.335938 92.992188 177.945312 91.101562 175.433594 93.027344 " fill-opacity="1" fill-rule="evenodd"/><path fill="#cecdcb" d="M 170.460938 144.921875 C 169.226562 144.335938 169.214844 140.09375 168.839844 138.042969 C 168.609375 140.773438 167.140625 146.441406 168.804688 148.84375 C 171.46875 146.707031 174.632812 144.332031 177.917969 143.195312 C 175.28125 143.363281 172.226562 145.761719 170.460938 144.921875 " fill-opacity="1" fill-rule="evenodd"/><path fill="#7a7b7c" d="M 176.738281 85.578125 C 173.382812 86.179688 166.441406 90.101562 173.320312 100.464844 C 170.015625 91.800781 173.671875 88.378906 177.203125 88.28125 C 181.953125 88.152344 184.601562 92.378906 185.515625 91.089844 C 184.640625 87.835938 180.332031 84.929688 176.738281 85.578125 " fill-opacity="1" fill-rule="evenodd"/><path fill="#7a7b7c" d="M 165.691406 94.292969 C 169.144531 84.445312 175.277344 78.492188 185.933594 84.789062 C 181.363281 77.976562 168.472656 77.902344 165.691406 94.292969 " fill-opacity="1" fill-rule="evenodd"/><path fill="#7a7b7c" d="M 161.125 93.132812 C 168.507812 74.179688 178.507812 75.492188 185.515625 79.949219 C 182.769531 73.503906 166.355469 72.246094 161.125 93.132812 " fill-opacity="1" fill-rule="evenodd"/><path fill="#7a7b7c" d="M 159.570312 90.46875 C 164.457031 77.398438 170.511719 73.113281 179.863281 73.878906 C 172.308594 72.925781 164.664062 73.597656 159.570312 90.46875 " fill-opacity="1" fill-rule="evenodd"/><path fill="#7a7b7c" d="M 183.855469 74.457031 C 182.457031 74.175781 181.132812 73.984375 179.863281 73.878906 C 181.199219 74.046875 182.535156 74.265625 183.855469 74.457031 " fill-opacity="1" fill-rule="evenodd"/><path fill="#7a7b7c" d="M 173.320312 198.828125 C 177.015625 194.183594 172.800781 179.980469 183.855469 169.574219 C 172.644531 174.757812 169.828125 184.921875 173.320312 198.828125 " fill-opacity="1" fill-rule="evenodd"/><path fill="#7a7b7c" d="M 166.347656 194.449219 C 166.984375 182.226562 167.339844 175.144531 170.148438 172.117188 C 164.78125 172.851562 164.445312 186.265625 166.347656 194.449219 " fill-opacity="1" fill-rule="evenodd"/><path fill="#7a7b7c" d="M 159.570312 190.488281 C 160.113281 179.71875 161.417969 170.546875 165.292969 166.75 C 158.34375 168.222656 158.648438 178.960938 159.570312 190.488281 " fill-opacity="1" fill-rule="evenodd"/><path fill="#7a7b7c" d="M 154.992188 186.109375 C 154.835938 172.695312 157.1875 165.933594 160.957031 162.933594 L 159.082031 161.238281 C 154.519531 165.328125 152.875 173.175781 154.992188 186.109375 " fill-opacity="1" fill-rule="evenodd"/><path fill="#7a7b7c" d="M 148.605469 166.183594 C 148.808594 154.011719 151.382812 142.75 154.078125 137.296875 C 149.832031 141.386719 147.335938 152.707031 148.605469 166.183594 " fill-opacity="1" fill-rule="evenodd"/><path fill="#7a7b7c" d="M 154.078125 150.5 L 155.136719 151.910156 C 155.707031 147.054688 156.765625 143.6875 159.292969 142.46875 L 157.023438 140.753906 C 155.300781 141.929688 154.808594 146.566406 154.078125 150.5 " fill-opacity="1" fill-rule="evenodd"/><path fill="#ffffff" d="M 184.667969 154.515625 C 183.652344 154.59375 183.253906 156.289062 183.132812 158.726562 C 183.746094 158.902344 185.105469 159.035156 186.265625 158.773438 C 186.257812 156.738281 185.457031 155.039062 184.667969 154.515625 " fill-opacity="1" fill-rule="evenodd"/><path fill="#ffffff" d="M 180.117188 159.851562 C 180.371094 162.175781 180.976562 163.214844 181.847656 163.257812 C 182.832031 162.898438 182.648438 161.613281 182.296875 160.195312 L 180.117188 159.851562 " fill-opacity="1" fill-rule="evenodd"/><path fill="#ffffff" d="M 177.363281 158.917969 C 177.664062 161.460938 178.511719 162.484375 179.566406 162.746094 L 178.964844 159.851562 L 177.363281 158.917969 " fill-opacity="1" fill-rule="evenodd"/><path fill="#ffffff" d="M 175.117188 159.851562 C 175.488281 160.304688 176.023438 160.738281 176.808594 161.152344 L 176.335938 158.917969 L 175.117188 159.851562 " fill-opacity="1" fill-rule="evenodd"/><path fill="#ffffff" d="M 183.132812 160.195312 C 183.359375 161.625 183.683594 162.972656 184.667969 163.769531 L 185.707031 164.085938 C 186.390625 163.039062 186.355469 161.597656 186.078125 160.449219 L 183.132812 160.195312 " fill-opacity="1" fill-rule="evenodd"/><path fill="#ffffff" d="M 180.054688 157.003906 L 179.539062 158.726562 C 180.585938 158.816406 181.550781 158.792969 182.296875 158.472656 L 181.976562 155.472656 L 180.054688 157.003906 " fill-opacity="1" fill-rule="evenodd"/><path fill="#100f0d" d="M 164.761719 120.226562 C 162.308594 123.898438 161.570312 127.230469 163.175781 130.085938 C 163.511719 128.488281 164.195312 127.738281 165.257812 127.914062 C 180.253906 132.761719 181.726562 126.863281 183.132812 120.914062 C 175.914062 120.785156 168.078125 115.257812 164.761719 120.226562 " fill-opacity="1" fill-rule="evenodd"/><path fill="#100f0d" d="M 177.363281 133.4375 C 174.472656 136.085938 171.871094 138.316406 170.011719 139.453125 C 171.15625 141.484375 172.875 142.511719 175.117188 142.621094 L 172.726562 139.746094 C 175.519531 137.804688 176.382812 135.613281 177.363281 133.4375 " fill-opacity="1" fill-rule="evenodd"/><path fill="#100f0d" d="M 159.707031 129.492188 C 158.59375 127.160156 158.949219 124.667969 160.007812 122.097656 C 157.980469 123.121094 157.046875 125.765625 157.136719 131.367188 C 157.890625 132.890625 162.96875 132.859375 167.039062 137.085938 C 167.230469 134.613281 165.769531 132.101562 159.707031 129.492188 " fill-opacity="1" fill-rule="evenodd"/><path fill="#100f0d" d="M 181.769531 113.519531 C 183.039062 117.277344 184.820312 118.539062 183.132812 125.746094 C 185.875 121.105469 186.746094 116.796875 181.769531 113.519531 " fill-opacity="1" fill-rule="evenodd"/><path fill="#100f0d" d="M 165.453125 111.78125 C 161.675781 113.957031 161.78125 115.675781 162.09375 119.632812 C 165.175781 111.855469 169.640625 111.8125 178.839844 117.734375 C 180.882812 118.542969 181.433594 117.445312 181.769531 116.082031 C 178.335938 116.011719 172.71875 112.226562 169.21875 111.742188 C 167.351562 111.488281 166.667969 111.085938 165.453125 111.78125 " fill-opacity="1" fill-rule="evenodd"/><path fill="#100f0d" d="M 160.996094 109.671875 C 158.351562 107.652344 160.578125 101.269531 159.90625 97.644531 C 159.847656 103.199219 155.027344 106.734375 158.320312 112.925781 C 156.519531 116.464844 157.171875 119.089844 158.125 121.605469 C 157.847656 116.695312 160.78125 110.953125 166.277344 104.546875 C 164.265625 105.617188 161.90625 108.007812 160.996094 109.671875 " fill-opacity="1" fill-rule="evenodd"/><path fill="#100f0d" d="M 175.164062 107.207031 C 176.882812 110.1875 179.308594 104.425781 186.746094 109.625 L 186.71875 107.605469 C 179.707031 103.273438 178.585938 107.941406 175.164062 107.207031 " fill-opacity="1" fill-rule="evenodd"/><path fill="#100f0d" d="M 177.335938 103.304688 C 178.464844 104.726562 181.746094 101.441406 186.746094 105.210938 L 186.746094 103.578125 C 180.484375 100.46875 179.851562 103.242188 177.335938 103.304688 " fill-opacity="1" fill-rule="evenodd"/><path fill="#100f0d" d="M 179.851562 99.605469 C 183.480469 99.15625 184.191406 101.488281 186.746094 101.140625 L 186.746094 100.199219 C 185.1875 100.523438 182.734375 97.59375 179.851562 99.605469 " fill-opacity="1" fill-rule="evenodd"/><path fill="#100f0d" d="M 166.429688 130.445312 C 166.75 131.371094 167.074219 132.640625 168.539062 133.15625 C 170.125 133.695312 172.179688 133.257812 174.664062 131.925781 C 170.355469 132.652344 167.941406 131.898438 166.429688 130.445312 " fill-opacity="1" fill-rule="evenodd"/><path fill="#100f0d" d="M 157.472656 155.914062 C 170.574219 160.78125 174.171875 146.40625 185.640625 146.515625 C 174.210938 143.847656 172.304688 158.054688 157.472656 155.914062 " fill-opacity="1" fill-rule="evenodd"/><path fill="#100f0d" d="M 160.292969 158.164062 C 170.625 163.015625 183.777344 153.53125 185.640625 148.363281 C 179.792969 148.160156 179.761719 160.246094 160.292969 158.164062 " fill-opacity="1" fill-rule="evenodd"/><path fill="#100f0d" d="M 179.507812 149.648438 C 175.257812 151.246094 173.191406 156.53125 164.734375 157.523438 C 173.414062 157.980469 176.203125 152.234375 179.507812 149.648438 " fill-opacity="1" fill-rule="evenodd"/><path fill="#100f0d" d="M 156.363281 253.699219 C 150.824219 260.179688 143.953125 263.425781 141.027344 260.949219 C 138.101562 258.46875 140.21875 251.195312 145.753906 244.714844 C 151.292969 238.238281 158.164062 234.984375 161.089844 237.464844 C 164.019531 239.945312 161.898438 247.21875 156.363281 253.699219 Z M 181.699219 217.523438 C 174.1875 223.933594 167.199219 229.582031 161.535156 233.300781 C 156.105469 230.789062 147.6875 233.90625 141.582031 241.050781 C 134.726562 249.070312 133.371094 259.140625 138.550781 263.527344 C 143.730469 267.914062 153.5 264.964844 160.355469 256.945312 C 165.121094 251.367188 167.222656 244.796875 166.320312 239.839844 C 166.359375 239.605469 166.398438 239.363281 166.429688 239.09375 C 171.683594 232.414062 182.097656 227.917969 186.746094 229 L 181.699219 217.523438 " fill-opacity="1" fill-rule="evenodd"/><path fill="#7a7b7c" d="M 180.730469 189.125 C 179.730469 193.546875 179.402344 198.042969 179.867188 202.628906 C 180.71875 203.953125 182.039062 205.554688 183.65625 207.328125 C 181.648438 202.699219 180.558594 196.789062 180.730469 189.125 " fill-opacity="1" fill-rule="evenodd"/><path fill="#7a7b7c" d="M 168.675781 179.753906 C 167.800781 186.179688 168.558594 188.566406 168.828125 193.296875 C 169.210938 182.335938 171.136719 176.121094 174.082031 173.042969 L 172.222656 172.378906 C 170.988281 173.582031 169.042969 177.074219 168.675781 179.753906 " fill-opacity="1" fill-rule="evenodd"/><path fill="#7a7b7c" d="M 162.910156 191.113281 C 162.28125 182.789062 163.578125 175.234375 166.703125 168.410156 C 162.40625 173.710938 161.574219 181.597656 162.910156 191.113281 " fill-opacity="1" fill-rule="evenodd"/><path fill="#7a7b7c" d="M 150.96875 168.109375 C 152.382812 163.78125 153.105469 160.363281 154.519531 157.320312 L 152.546875 155.425781 L 150.96875 168.109375 " fill-opacity="1" fill-rule="evenodd"/><path fill="#100f0d" d="M 169.664062 119.914062 C 166.828125 120.09375 164.945312 121.738281 164.515625 125.601562 C 166.945312 126.339844 169.191406 126.84375 171.171875 127.007812 C 166.054688 125 165.882812 122.609375 169.664062 119.914062 " fill-opacity="1" fill-rule="evenodd"/><path fill="#100f0d" d="M 180.191406 139.207031 C 181.054688 137.835938 182.066406 135.757812 183.164062 133.292969 C 181.648438 135.398438 180.378906 137.113281 179.890625 137.609375 C 178.488281 139.054688 178.546875 141.144531 180.703125 140.082031 C 181.71875 139.105469 183.34375 137.988281 186.746094 138.144531 C 185.410156 137.46875 182.359375 138.503906 180.191406 139.207031 " fill-opacity="1" fill-rule="evenodd"/><path fill="#7a7b7c" d="M 158.320312 153.371094 C 159.421875 149.828125 160.835938 147.207031 162.773438 146.125 L 161.359375 144.085938 C 158.160156 146.628906 158.085938 149.957031 158.320312 153.371094 " fill-opacity="1" fill-rule="evenodd"/><path fill="#7a7b7c" d="M 161.921875 153.371094 L 164.75 151.890625 L 163.832031 147.953125 Z M 161.921875 153.371094 " fill-opacity="1" fill-rule="evenodd"/><path fill="#100f0d" d="M 137.96875 253.328125 C 141.734375 244.453125 147.1875 238.570312 154.078125 235.25 C 145.84375 236.976562 140.824219 243.53125 137.96875 253.328125 " fill-opacity="1" fill-rule="evenodd"/><path fill="#100f0d" d="M 137.066406 256.664062 C 137.546875 265.914062 146.902344 265.902344 150.46875 262.433594 C 143.578125 264.949219 139.65625 264.574219 137.066406 256.664062 " fill-opacity="1" fill-rule="evenodd"/><path fill="#cecdcb" d="M 165.925781 161.945312 C 165.929688 166.003906 168.671875 169.949219 173.375 171.367188 C 178.804688 171.867188 180.117188 170.5 177.730469 167.851562 C 176.980469 167.542969 176.378906 167.230469 175.890625 166.917969 C 177.839844 170.15625 177.023438 171.121094 173.628906 169.976562 C 171.007812 168.542969 169.085938 166.472656 167.996094 163.660156 C 169.820312 163.839844 171.6875 163.644531 173.6875 162.289062 C 177.746094 164.867188 180.304688 165.21875 182.457031 164.964844 C 178.464844 164.128906 175.113281 162.390625 173.796875 161.066406 C 169.910156 162.085938 168.089844 162.359375 165.925781 161.945312 " fill-opacity="1" fill-rule="evenodd"/><path fill="#cecdcb" d="M 185.242188 157.644531 L 185.261719 158.261719 L 184.804688 157.578125 L 184.738281 158.351562 L 184.4375 157.714844 L 184.28125 158.421875 L 183.9375 157.851562 L 183.597656 158.71875 C 184.164062 158.8125 185.03125 159.105469 185.976562 158.683594 C 185.90625 156.824219 185.316406 156.035156 184.875 155.164062 L 185.242188 157.644531 " fill-opacity="1" fill-rule="evenodd"/><path fill="#cecdcb" d="M 181.621094 158.035156 L 181.300781 157.398438 L 181.300781 158.101562 L 181.003906 157.464844 L 180.914062 158.195312 L 180.707031 157.578125 L 180.59375 158.261719 L 180.367188 157.601562 L 180.089844 158.558594 C 180.5625 158.613281 181.054688 158.660156 182.058594 158.328125 L 181.808594 156.234375 L 181.621094 158.035156 " fill-opacity="1" fill-rule="evenodd"/><path fill="#cecdcb" d="M 183.410156 160.496094 C 183.429688 161.238281 183.703125 162.050781 184.164062 162.910156 C 183.84375 161.945312 183.765625 161.238281 183.957031 160.8125 L 184.28125 161.382812 L 184.394531 160.859375 L 184.601562 161.316406 L 184.789062 160.859375 L 185.011719 161.382812 L 185.21875 160.859375 L 185.445312 161.476562 L 185.492188 160.902344 L 185.8125 161.476562 L 185.789062 160.652344 L 183.410156 160.496094 " fill-opacity="1" fill-rule="evenodd"/><path fill="#cecdcb" d="M 178.394531 160.152344 L 178.808594 160.8125 L 178.785156 160.039062 L 177.59375 159.308594 C 177.722656 160.589844 178.074219 161.226562 178.488281 161.703125 L 178.121094 159.859375 L 178.394531 160.632812 L 178.394531 160.152344 " fill-opacity="1" fill-rule="evenodd"/><path fill="#cecdcb" d="M 180.386719 160.152344 C 180.488281 161.660156 180.84375 162.28125 181.234375 162.773438 C 180.894531 161.902344 180.753906 161.132812 180.867188 160.496094 L 181.234375 161.066406 L 181.28125 160.496094 L 181.488281 161.066406 L 181.578125 160.609375 L 181.785156 161.066406 L 181.851562 160.652344 L 182.171875 161.199219 L 182.058594 160.382812 L 180.386719 160.152344 " fill-opacity="1" fill-rule="evenodd"/><path fill="#cecdcb" d="M 196.0625 115.980469 L 190.171875 115.511719 L 189.148438 121.304688 C 190.414062 131.746094 197.460938 134.015625 209.808594 127.328125 C 210.449219 124.894531 209.898438 122.957031 208.808594 121.25 C 197.039062 118.8125 196.011719 118.15625 196.0625 115.980469 " fill-opacity="1" fill-rule="evenodd"/><path fill="#cecdcb" d="M 202.980469 144.921875 C 201.214844 145.761719 198.15625 143.363281 195.523438 143.195312 C 198.808594 144.332031 201.972656 146.707031 204.632812 148.84375 C 206.300781 146.441406 204.832031 140.773438 204.601562 138.042969 C 204.226562 140.09375 204.214844 144.335938 202.980469 144.921875 " fill-opacity="1" fill-rule="evenodd"/><path fill="#cecdcb" d="M 213.664062 93.671875 C 213.636719 95.46875 212.917969 97 211.382812 98.21875 C 211.027344 95.203125 210.054688 94.039062 208.890625 93.46875 C 209.539062 95.960938 208.71875 98.394531 207.160156 100.804688 C 206.707031 97.707031 206.042969 95.777344 205.152344 95.121094 C 204.289062 98.742188 201.027344 102.445312 197.992188 104.210938 C 199.542969 99.136719 200.300781 94.777344 198.007812 93.027344 C 195.492188 91.101562 194.101562 92.992188 191.226562 94.304688 C 192.804688 94.113281 195.890625 92.402344 197.464844 94.222656 C 199.582031 96.660156 197.269531 105.890625 197.269531 105.890625 C 200.246094 104.492188 202.980469 102.191406 205.40625 98.785156 L 205.816406 104.578125 C 207.175781 103.804688 209.179688 101.179688 209.859375 98.175781 L 210.710938 101.167969 C 212.472656 100.265625 213.105469 99.382812 213.425781 98.507812 C 213.425781 98.507812 215.3125 103.980469 214.847656 107.113281 C 214.386719 110.246094 211.785156 109.988281 211.785156 109.988281 C 214.988281 114.660156 214.617188 118.476562 213.433594 122.097656 C 213.433594 122.097656 216 125.914062 214.925781 128.589844 C 213.851562 131.261719 208.632812 134.929688 206.941406 135.695312 C 205.464844 136.363281 204.964844 136.515625 204.863281 136.546875 L 204.839844 136.550781 C 206.070312 140.386719 207.101562 142.113281 207.957031 141.921875 C 215.417969 136.796875 218.566406 131.511719 219.050781 127.960938 C 217.742188 123.996094 215.910156 120.703125 217.554688 115.363281 C 221.746094 104.738281 217.367188 99.414062 213.664062 93.671875 " fill-opacity="1" fill-rule="evenodd"/><path fill="#7a7b7c" d="M 196.703125 85.578125 C 193.109375 84.929688 188.796875 87.835938 187.925781 91.089844 C 188.835938 92.378906 191.488281 88.152344 196.242188 88.28125 C 199.769531 88.378906 203.421875 91.800781 200.121094 100.464844 C 207 90.101562 200.058594 86.179688 196.703125 85.578125 " fill-opacity="1" fill-rule="evenodd"/><path fill="#7a7b7c" d="M 187.507812 84.789062 C 198.164062 78.492188 204.292969 84.445312 207.746094 94.292969 C 204.96875 77.902344 192.078125 77.976562 187.507812 84.789062 " fill-opacity="1" fill-rule="evenodd"/><path fill="#7a7b7c" d="M 187.925781 79.949219 C 194.933594 75.492188 204.933594 74.179688 212.316406 93.132812 C 207.082031 72.246094 190.671875 73.503906 187.925781 79.949219 " fill-opacity="1" fill-rule="evenodd"/><path fill="#7a7b7c" d="M 193.578125 73.878906 C 202.929688 73.113281 208.980469 77.398438 213.875 90.46875 C 208.773438 73.597656 201.132812 72.925781 193.578125 73.878906 " fill-opacity="1" fill-rule="evenodd"/><path fill="#7a7b7c" d="M 193.578125 73.878906 C 192.308594 73.984375 190.980469 74.175781 189.585938 74.457031 C 190.902344 74.265625 192.238281 74.046875 193.578125 73.878906 " fill-opacity="1" fill-rule="evenodd"/><path fill="#7a7b7c" d="M 189.585938 169.574219 C 200.636719 179.980469 196.425781 194.183594 200.121094 198.828125 C 203.609375 184.921875 200.796875 174.757812 189.585938 169.574219 " fill-opacity="1" fill-rule="evenodd"/><path fill="#7a7b7c" d="M 186.71875 170.140625 C 179.734375 175.398438 175.753906 184.207031 177.882812 200.238281 C 178.59375 192.945312 179.605469 183.839844 182.820312 180.539062 C 181.523438 191.695312 182.6875 200.921875 186.664062 210.636719 C 186.675781 210.703125 186.683594 210.773438 186.695312 210.839844 C 186.703125 210.820312 186.710938 210.796875 186.71875 210.777344 C 186.730469 210.796875 186.734375 210.820312 186.746094 210.839844 L 186.746094 210.714844 C 190.746094 200.96875 191.921875 191.726562 190.621094 180.539062 C 193.835938 183.839844 194.847656 192.945312 195.554688 200.238281 C 197.6875 184.207031 193.707031 175.398438 186.71875 170.140625 " fill-opacity="1" fill-rule="evenodd"/><path fill="#7a7b7c" d="M 203.292969 172.117188 C 206.105469 175.144531 206.457031 182.226562 207.089844 194.449219 C 208.992188 186.265625 208.660156 172.851562 203.292969 172.117188 " fill-opacity="1" fill-rule="evenodd"/><path fill="#7a7b7c" d="M 208.148438 166.75 C 212.023438 170.546875 213.328125 179.71875 213.875 190.488281 C 214.792969 178.960938 215.097656 168.222656 208.148438 166.75 " fill-opacity="1" fill-rule="evenodd"/><path fill="#7a7b7c" d="M 214.355469 161.238281 L 212.484375 162.933594 C 216.253906 165.933594 218.605469 172.695312 218.445312 186.109375 C 220.5625 173.175781 218.921875 165.328125 214.355469 161.238281 " fill-opacity="1" fill-rule="evenodd"/><path fill="#7a7b7c" d="M 224.835938 166.183594 C 226.105469 152.707031 223.609375 141.386719 219.363281 137.296875 C 222.058594 142.75 224.628906 154.011719 224.835938 166.183594 " fill-opacity="1" fill-rule="evenodd"/><path fill="#7a7b7c" d="M 214.148438 142.46875 C 216.671875 143.6875 217.734375 147.054688 218.304688 151.910156 L 219.363281 150.5 C 218.628906 146.566406 218.140625 141.929688 216.417969 140.753906 L 214.148438 142.46875 " fill-opacity="1" fill-rule="evenodd"/><path fill="#ffffff" d="M 186.746094 153.804688 L 188.773438 153.492188 L 186.71875 151.453125 L 184.667969 153.492188 L 186.695312 153.804688 L 186.695312 153.8125 L 186.71875 153.808594 L 186.746094 153.8125 L 186.746094 153.804688 " fill-opacity="1" fill-rule="evenodd"/><path fill="#ffffff" d="M 188.773438 154.515625 C 187.980469 155.039062 187.183594 156.738281 187.175781 158.773438 C 188.335938 159.035156 189.695312 158.902344 190.308594 158.726562 C 190.1875 156.289062 189.789062 154.59375 188.773438 154.515625 " fill-opacity="1" fill-rule="evenodd"/><path fill="#ffffff" d="M 191.589844 163.257812 C 192.464844 163.214844 193.070312 162.175781 193.324219 159.851562 L 191.144531 160.195312 C 190.789062 161.613281 190.605469 162.898438 191.589844 163.257812 " fill-opacity="1" fill-rule="evenodd"/><path fill="#ffffff" d="M 193.875 162.746094 C 194.929688 162.484375 195.777344 161.460938 196.078125 158.917969 L 194.476562 159.851562 L 193.875 162.746094 " fill-opacity="1" fill-rule="evenodd"/><path fill="#ffffff" d="M 196.632812 161.152344 C 197.414062 160.738281 197.953125 160.304688 198.324219 159.851562 L 197.105469 158.917969 L 196.632812 161.152344 " fill-opacity="1" fill-rule="evenodd"/><path fill="#ffffff" d="M 187.734375 164.085938 L 188.773438 163.769531 C 189.757812 162.972656 190.082031 161.625 190.308594 160.195312 L 187.359375 160.449219 C 187.085938 161.597656 187.046875 163.039062 187.734375 164.085938 " fill-opacity="1" fill-rule="evenodd"/><path fill="#ffffff" d="M 191.464844 155.472656 L 191.144531 158.472656 C 191.890625 158.792969 192.855469 158.816406 193.898438 158.726562 L 193.386719 157.003906 L 191.464844 155.472656 " fill-opacity="1" fill-rule="evenodd"/><path fill="#100f0d" d="M 190.308594 120.914062 C 191.714844 126.863281 193.1875 132.761719 208.183594 127.914062 C 209.246094 127.738281 209.925781 128.488281 210.265625 130.085938 C 211.871094 127.230469 211.132812 123.898438 208.679688 120.226562 C 205.363281 115.257812 197.527344 120.785156 190.308594 120.914062 " fill-opacity="1" fill-rule="evenodd"/><path fill="#100f0d" d="M 200.714844 139.746094 L 198.324219 142.621094 C 200.566406 142.511719 202.285156 141.484375 203.429688 139.453125 C 201.570312 138.316406 198.964844 136.085938 196.078125 133.4375 C 197.058594 135.613281 197.921875 137.804688 200.714844 139.746094 " fill-opacity="1" fill-rule="evenodd"/><path fill="#100f0d" d="M 213.433594 122.097656 C 214.492188 124.667969 214.847656 127.160156 213.730469 129.492188 C 207.667969 132.101562 206.210938 134.613281 206.402344 137.085938 C 210.472656 132.859375 215.550781 132.890625 216.308594 131.367188 C 216.394531 125.765625 215.460938 123.121094 213.433594 122.097656 " fill-opacity="1" fill-rule="evenodd"/><path fill="#100f0d" d="M 190.308594 125.746094 C 188.617188 118.539062 190.402344 117.277344 191.671875 113.519531 C 186.695312 116.796875 187.566406 121.105469 190.308594 125.746094 " fill-opacity="1" fill-rule="evenodd"/><path fill="#100f0d" d="M 207.988281 111.78125 C 206.773438 111.085938 206.089844 111.488281 204.222656 111.742188 C 200.71875 112.226562 195.105469 116.011719 191.671875 116.082031 C 192.007812 117.445312 192.558594 118.542969 194.597656 117.734375 C 203.800781 111.8125 208.265625 111.855469 211.347656 119.632812 C 211.660156 115.675781 211.765625 113.957031 207.988281 111.78125 " fill-opacity="1" fill-rule="evenodd"/><path fill="#100f0d" d="M 213.53125 97.644531 C 212.859375 101.269531 215.089844 107.652344 212.445312 109.671875 C 211.535156 108.007812 209.175781 105.617188 207.160156 104.546875 C 212.660156 110.953125 215.59375 116.695312 215.316406 121.605469 C 216.265625 119.089844 216.921875 116.464844 215.117188 112.925781 C 218.414062 106.734375 213.59375 103.199219 213.53125 97.644531 " fill-opacity="1" fill-rule="evenodd"/><path fill="#100f0d" d="M 186.71875 107.605469 L 186.695312 109.625 C 194.128906 104.425781 196.558594 110.1875 198.277344 107.207031 C 194.855469 107.941406 193.734375 103.273438 186.71875 107.605469 " fill-opacity="1" fill-rule="evenodd"/><path fill="#100f0d" d="M 186.695312 103.578125 L 186.695312 105.210938 C 191.695312 101.441406 194.972656 104.726562 196.105469 103.304688 C 193.585938 103.242188 192.957031 100.46875 186.695312 103.578125 " fill-opacity="1" fill-rule="evenodd"/><path fill="#100f0d" d="M 186.695312 100.199219 L 186.695312 101.140625 C 189.25 101.488281 189.960938 99.15625 193.589844 99.605469 C 190.707031 97.59375 188.253906 100.523438 186.695312 100.199219 " fill-opacity="1" fill-rule="evenodd"/><path fill="#100f0d" d="M 198.777344 131.925781 C 201.261719 133.257812 203.316406 133.695312 204.902344 133.15625 C 206.367188 132.640625 206.691406 131.371094 207.007812 130.445312 C 205.5 131.898438 203.085938 132.652344 198.777344 131.925781 " fill-opacity="1" fill-rule="evenodd"/><path fill="#100f0d" d="M 187.800781 146.515625 C 199.269531 146.40625 202.867188 160.78125 215.96875 155.914062 C 201.136719 158.054688 199.230469 143.847656 187.800781 146.515625 " fill-opacity="1" fill-rule="evenodd"/><path fill="#100f0d" d="M 187.800781 148.363281 C 189.664062 153.53125 202.816406 163.015625 213.144531 158.164062 C 193.679688 160.246094 193.648438 148.160156 187.800781 148.363281 " fill-opacity="1" fill-rule="evenodd"/><path fill="#100f0d" d="M 208.703125 157.523438 C 200.25 156.53125 198.183594 151.246094 193.933594 149.648438 C 197.238281 152.234375 200.027344 157.980469 208.703125 157.523438 " fill-opacity="1" fill-rule="evenodd"/><path fill="#100f0d" d="M 186.746094 211.855469 C 186.726562 211.871094 186.710938 211.882812 186.695312 211.898438 L 186.695312 211.855469 L 120.507812 164.273438 C 123.519531 179.542969 132.605469 191.160156 186.71875 229 C 240.835938 191.160156 249.921875 179.542969 252.933594 164.273438 L 186.746094 211.855469 " fill-opacity="1" fill-rule="evenodd"/><path fill="#100f0d" d="M 232.414062 260.949219 C 229.488281 263.425781 222.613281 260.179688 217.078125 253.699219 C 211.542969 247.21875 209.421875 239.945312 212.347656 237.464844 C 215.277344 234.984375 222.148438 238.238281 227.683594 244.714844 C 233.222656 251.195312 235.339844 258.46875 232.414062 260.949219 Z M 231.859375 241.050781 C 225.753906 233.90625 217.332031 230.789062 211.90625 233.300781 C 206.242188 229.582031 199.25 223.933594 191.738281 217.523438 L 186.695312 229 C 191.34375 227.917969 201.757812 232.414062 207.007812 239.09375 C 207.050781 239.328125 207.09375 239.542969 207.136719 239.753906 C 206.191406 244.722656 208.292969 251.335938 213.085938 256.945312 C 219.9375 264.964844 229.707031 267.914062 234.886719 263.527344 C 240.070312 259.140625 238.710938 249.070312 231.859375 241.050781 " fill-opacity="1" fill-rule="evenodd"/><path fill="#7a7b7c" d="M 189.785156 207.328125 C 191.402344 205.554688 192.722656 203.953125 193.574219 202.628906 C 194.035156 198.042969 193.710938 193.546875 192.710938 189.125 C 192.878906 196.789062 191.792969 202.699219 189.785156 207.328125 " fill-opacity="1" fill-rule="evenodd"/><path fill="#7a7b7c" d="M 201.222656 172.378906 L 199.359375 173.042969 C 202.300781 176.121094 204.230469 182.335938 204.609375 193.296875 C 204.882812 188.566406 205.644531 186.179688 204.761719 179.753906 C 204.398438 177.074219 202.453125 173.582031 201.222656 172.378906 " fill-opacity="1" fill-rule="evenodd"/><path fill="#7a7b7c" d="M 210.527344 191.113281 C 211.867188 181.597656 211.03125 173.710938 206.738281 168.410156 C 209.863281 175.234375 211.15625 182.789062 210.527344 191.113281 " fill-opacity="1" fill-rule="evenodd"/><path fill="#7a7b7c" d="M 218.921875 157.320312 C 220.335938 160.363281 221.058594 163.78125 222.472656 168.109375 L 220.894531 155.425781 L 218.921875 157.320312 " fill-opacity="1" fill-rule="evenodd"/><path fill="#100f0d" d="M 203.777344 119.914062 C 207.558594 122.609375 207.382812 125 202.265625 127.007812 C 204.246094 126.84375 206.496094 126.339844 208.925781 125.601562 C 208.492188 121.738281 206.613281 120.09375 203.777344 119.914062 " fill-opacity="1" fill-rule="evenodd"/><path fill="#100f0d" d="M 190.277344 133.292969 C 191.375 135.757812 192.386719 137.835938 193.25 139.207031 C 191.082031 138.503906 188.03125 137.46875 186.695312 138.144531 C 190.09375 137.988281 191.722656 139.105469 192.738281 140.082031 C 194.894531 141.144531 194.949219 139.054688 193.550781 137.609375 C 193.0625 137.113281 191.792969 135.398438 190.277344 133.292969 " fill-opacity="1" fill-rule="evenodd"/><path fill="#7a7b7c" d="M 212.082031 144.085938 L 210.667969 146.125 C 212.601562 147.207031 214.019531 149.828125 215.121094 153.371094 C 215.355469 149.957031 215.28125 146.628906 212.082031 144.085938 " fill-opacity="1" fill-rule="evenodd"/><path fill="#7a7b7c" d="M 208.691406 151.890625 L 211.515625 153.371094 L 209.609375 147.953125 Z M 208.691406 151.890625 " fill-opacity="1" fill-rule="evenodd"/><path fill="#100f0d" d="M 219.363281 235.25 C 226.253906 238.570312 231.707031 244.453125 235.472656 253.328125 C 232.613281 243.53125 227.597656 236.976562 219.363281 235.25 " fill-opacity="1" fill-rule="evenodd"/><path fill="#100f0d" d="M 222.976562 262.433594 C 226.535156 265.902344 235.894531 265.914062 236.375 256.664062 C 233.78125 264.574219 229.863281 264.949219 222.976562 262.433594 " fill-opacity="1" fill-rule="evenodd"/><path fill="#cecdcb" d="M 199.640625 161.066406 C 198.328125 162.390625 194.972656 164.128906 190.980469 164.964844 C 193.136719 165.21875 195.695312 164.867188 199.753906 162.289062 C 201.753906 163.644531 203.621094 163.839844 205.445312 163.660156 C 204.355469 166.472656 202.433594 168.542969 199.8125 169.976562 C 196.417969 171.121094 195.597656 170.15625 197.550781 166.917969 C 197.0625 167.230469 196.460938 167.542969 195.707031 167.851562 C 193.324219 170.5 194.636719 171.867188 200.070312 171.367188 C 204.769531 169.949219 207.511719 166.003906 207.515625 161.945312 C 205.351562 162.359375 203.53125 162.085938 199.640625 161.066406 " fill-opacity="1" fill-rule="evenodd"/><path fill="#cecdcb" d="M 189.160156 158.421875 L 189.003906 157.714844 L 188.703125 158.351562 L 188.636719 157.578125 L 188.175781 158.261719 L 188.199219 157.644531 L 188.566406 155.164062 C 188.125 156.035156 187.535156 156.824219 187.464844 158.683594 C 188.410156 159.105469 189.277344 158.8125 189.84375 158.71875 L 189.503906 157.851562 L 189.160156 158.421875 " fill-opacity="1" fill-rule="evenodd"/><path fill="#cecdcb" d="M 192.847656 158.261719 L 192.730469 157.578125 L 192.527344 158.195312 L 192.4375 157.464844 L 192.136719 158.101562 L 192.136719 157.398438 L 191.816406 158.035156 L 191.632812 156.234375 L 191.382812 158.328125 C 192.386719 158.660156 192.875 158.613281 193.351562 158.558594 L 193.074219 157.601562 L 192.847656 158.261719 " fill-opacity="1" fill-rule="evenodd"/><path fill="#cecdcb" d="M 187.628906 161.476562 L 187.949219 160.902344 L 187.992188 161.476562 L 188.222656 160.859375 L 188.425781 161.382812 L 188.652344 160.859375 L 188.839844 161.316406 L 189.046875 160.859375 L 189.160156 161.382812 L 189.480469 160.8125 C 189.671875 161.238281 189.597656 161.945312 189.273438 162.910156 C 189.734375 162.050781 190.011719 161.238281 190.03125 160.496094 L 187.652344 160.652344 L 187.628906 161.476562 " fill-opacity="1" fill-rule="evenodd"/><path fill="#cecdcb" d="M 194.632812 160.8125 L 195.046875 160.152344 L 195.046875 160.632812 L 195.320312 159.859375 L 194.953125 161.703125 C 195.363281 161.226562 195.71875 160.589844 195.847656 159.308594 L 194.65625 160.039062 L 194.632812 160.8125 " fill-opacity="1" fill-rule="evenodd"/><path fill="#cecdcb" d="M 191.265625 161.199219 L 191.589844 160.652344 L 191.65625 161.066406 L 191.863281 160.609375 L 191.953125 161.066406 L 192.160156 160.496094 L 192.207031 161.066406 L 192.574219 160.496094 C 192.6875 161.132812 192.546875 161.902344 192.207031 162.773438 C 192.597656 162.28125 192.949219 161.660156 193.054688 160.152344 L 191.382812 160.382812 L 191.265625 161.199219 " fill-opacity="1" fill-rule="evenodd"/><path fill="#cecdcb" d="M 124.992188 169.976562 C 126.191406 181.105469 153.179688 201.921875 178.476562 220.253906 L 186.746094 227.070312 C 190.515625 226.035156 196.070312 227.117188 208.464844 236.300781 L 210.257812 234.308594 L 184.71875 214.328125 L 124.992188 169.976562 " fill-opacity="1" fill-rule="evenodd"/><path fill="#cecdcb" d="M 195.382812 219.636719 C 226.613281 200.15625 247.21875 180.210938 248.589844 169.976562 L 188.863281 214.445312 L 195.382812 219.636719 " fill-opacity="1" fill-rule="evenodd"/><path fill="#cecdcb" d="M 164.097656 234.265625 L 165.519531 236.300781 C 171.917969 230.730469 177.78125 227.046875 182.820312 226.265625 L 178.382812 223.132812 L 164.097656 234.265625 " fill-opacity="1" fill-rule="evenodd"/><path fill="#100f0d" d="M 187.921875 219.128906 C 188.09375 219.425781 188.191406 219.757812 188.191406 220.117188 C 188.191406 221.265625 187.179688 222.199219 185.933594 222.199219 C 185.621094 222.199219 185.320312 222.140625 185.050781 222.035156 C 185.433594 222.6875 186.179688 223.132812 187.039062 223.132812 C 188.285156 223.132812 189.296875 222.199219 189.296875 221.046875 C 189.296875 220.1875 188.730469 219.445312 187.921875 219.128906 " fill-opacity="1" fill-rule="evenodd"/><path fill="#ffffff" d="M 124.992188 169.976562 C 125.078125 170.773438 125.296875 171.617188 125.636719 172.507812 L 181.769531 214.792969 L 187.257812 216.316406 L 184.71875 214.328125 L 124.992188 169.976562 " fill-opacity="1" fill-rule="evenodd"/><path fill="#ffffff" d="M 191.113281 216.238281 L 247.605469 173.339844 C 248.121094 172.128906 248.449219 171.003906 248.589844 169.976562 L 188.863281 214.445312 L 191.113281 216.238281 " fill-opacity="1" fill-rule="evenodd"/><g clip-path="url(#4089b05010)"><g clip-path="url(#3477ecfe27)"><g clip-path="url(#93d6abb7c7)"><g clip-path="url(#dd3abafcf6)"><path fill="#000000" d="M 287.765625 197.695312 C 288.449219 197.367188 290.257812 196.210938 291.925781 195.171875 C 293.59375 194.136719 295.125 193.21875 297.140625 192.136719 C 299.15625 191.058594 301.660156 189.820312 303.996094 188.511719 C 306.339844 187.207031 308.515625 185.832031 310.476562 184.136719 C 312.4375 182.445312 314.179688 180.425781 315.378906 178.328125 C 316.582031 176.230469 317.242188 174.054688 317.316406 171.765625 C 317.390625 169.480469 316.878906 167.085938 315.980469 164.808594 C 315.078125 162.523438 313.792969 160.359375 312.609375 158.175781 C 311.421875 155.996094 310.339844 153.792969 309.746094 151.515625 C 309.148438 149.242188 309.046875 146.886719 309.3125 144.9375 C 309.574219 142.992188 310.203125 141.445312 310.828125 140.085938 C 311.453125 138.726562 312.066406 137.558594 312.738281 136.628906 C 313.410156 135.695312 314.136719 135.007812 314.511719 134.664062 C 314.890625 134.320312 314.921875 134.320312 314.144531 134.925781 C 313.375 135.527344 311.796875 136.734375 309.9375 138.296875 C 308.074219 139.855469 305.917969 141.773438 304.066406 143.980469 C 302.21875 146.191406 300.671875 148.6875 299.78125 150.960938 C 298.894531 153.234375 298.664062 155.28125 298.972656 157.339844 C 299.28125 159.398438 300.125 161.464844 301.222656 163.289062 C 302.320312 165.117188 303.667969 166.707031 304.730469 168.347656 C 305.789062 169.988281 306.558594 171.683594 306.570312 173.867188 C 306.578125 176.050781 305.824219 178.722656 304.320312 181.273438 C 302.820312 183.828125 300.574219 186.265625 298.355469 188.300781 C 296.132812 190.335938 293.9375 191.96875 292.210938 193.351562 C 290.480469 194.738281 289.226562 195.875 288.375 196.695312 C 287.523438 197.515625 287.082031 198.023438 287.765625 197.695312 Z M 305.296875 181.144531 L 305.378906 182.421875 C 305.671875 182.105469 306.027344 181.695312 306.398438 181.222656 L 306.25 178.894531 C 306.09375 179.316406 305.921875 179.738281 305.738281 180.160156 C 305.59375 180.496094 305.441406 180.828125 305.296875 181.144531 Z M 304.882812 182.898438 L 304.835938 182.148438 C 304.609375 182.660156 304.480469 183.019531 304.574219 183.0625 C 304.621094 183.085938 304.730469 183.027344 304.882812 182.898438 Z M 306.691406 177.578125 L 306.878906 180.589844 C 306.929688 180.523438 306.980469 180.453125 307.03125 180.386719 C 307.285156 180.035156 307.539062 179.664062 307.789062 179.277344 L 306.28125 155.5 C 305.84375 154.148438 305.550781 152.839844 305.417969 151.644531 C 305.234375 149.945312 305.378906 148.46875 305.742188 147.03125 L 305.523438 143.59375 C 305.335938 143.789062 305.144531 143.996094 304.949219 144.207031 C 304.855469 144.304688 304.761719 144.410156 304.664062 144.515625 L 306.222656 168.996094 C 306.703125 169.953125 307.039062 170.875 307.21875 171.773438 C 307.5 173.203125 307.386719 174.585938 307.097656 175.972656 C 306.984375 176.507812 306.851562 177.042969 306.691406 177.578125 Z M 310.230469 165 L 310.695312 172.316406 C 310.867188 171.308594 310.9375 170.304688 310.917969 169.3125 C 310.886719 167.875 310.664062 166.460938 310.230469 165 Z M 310.285156 174.082031 L 309.589844 163.191406 C 309.285156 162.441406 308.933594 161.671875 308.566406 160.894531 L 309.53125 176.105469 C 309.6875 175.757812 309.832031 175.40625 309.960938 175.050781 C 310.082031 174.726562 310.1875 174.40625 310.285156 174.082031 Z M 300.820312 150.019531 L 301.550781 161.519531 C 301.628906 161.683594 301.710938 161.847656 301.792969 162.003906 C 302.023438 162.457031 302.273438 162.890625 302.53125 163.3125 L 301.59375 148.507812 C 301.414062 148.808594 301.246094 149.113281 301.09375 149.421875 C 300.996094 149.617188 300.90625 149.816406 300.820312 150.019531 Z M 300.933594 160.0625 L 300.375 151.242188 C 299.964844 152.617188 299.820312 154.042969 299.921875 155.535156 C 300.03125 157.027344 300.386719 158.585938 300.933594 160.0625 Z M 302.066406 147.753906 L 303.113281 164.214844 C 303.429688 164.6875 303.746094 165.140625 304.058594 165.585938 L 302.855469 146.65625 C 302.582031 147.015625 302.316406 147.382812 302.066406 147.753906 Z M 303.339844 146.042969 L 304.632812 166.40625 C 304.84375 166.707031 305.042969 167.003906 305.234375 167.296875 C 305.371094 167.507812 305.503906 167.71875 305.628906 167.929688 L 304.179688 145.058594 C 303.898438 145.375 303.617188 145.707031 303.339844 146.042969 Z M 306.019531 143.082031 L 306.175781 145.605469 C 306.414062 144.925781 306.683594 144.273438 306.949219 143.6875 L 306.859375 142.230469 C 306.597656 142.492188 306.3125 142.777344 306.019531 143.082031 Z M 306.917969 157.25 L 308.265625 178.519531 C 308.546875 178.050781 308.816406 177.566406 309.070312 177.074219 L 307.964844 159.613281 C 307.628906 158.90625 307.304688 158.195312 307.015625 157.492188 C 306.980469 157.410156 306.949219 157.332031 306.917969 157.25 Z M 307.351562 141.746094 L 307.414062 142.730469 C 307.945312 141.695312 308.390625 141.011719 308.617188 140.667969 C 308.847656 140.316406 308.847656 140.316406 308.21875 140.914062 C 308 141.125 307.703125 141.40625 307.351562 141.746094 " fill-opacity="1" fill-rule="evenodd"/></g></g></g></g><g fill="#ffffff" fill-opacity="1"><g transform="translate(64.634358, 273.547298)"><g><path d="M 28.777344 -1.503906 L 26.0625 -6.992188 L 24.386719 -10.382812 L 23.707031 -10.046875 L 1.347656 1.019531 L 0.671875 1.355469 L 2.347656 4.742188 L 5.0625 10.230469 C 6.40625 12.941406 9.847656 14.019531 12.59375 12.664062 L 14.421875 11.757812 C 16.691406 10.632812 17.96875 8.101562 17.589844 5.71875 C 19.257812 7.464844 22.046875 7.984375 24.316406 6.859375 L 26.144531 5.957031 C 28.886719 4.597656 30.121094 1.203125 28.777344 -1.503906 Z M 25.382812 -6.660156 L 27.179688 -3.035156 C 28.101562 -1.171875 27.28125 1.175781 25.316406 2.148438 L 21.691406 3.941406 C 19.691406 4.933594 17.257812 4.195312 16.335938 2.332031 L 14.542969 -1.292969 Z M 13.867188 -0.957031 L 15.660156 2.667969 C 16.582031 4.53125 15.695312 6.910156 13.695312 7.898438 L 10.070312 9.695312 C 8.105469 10.667969 5.742188 9.894531 4.820312 8.03125 L 3.023438 4.40625 Z M 13.867188 -0.957031 "/></g></g></g><g fill="#ffffff" fill-opacity="1"><g transform="translate(73.613867, 290.863284)"><g><path d="M 24.363281 -9.554688 L 25 -9.960938 L 23.1875 -12.835938 L 22.546875 -12.433594 L 1.445312 0.875 L 0.804688 1.277344 L 2.621094 4.15625 L 3.261719 3.753906 Z M 24.363281 -9.554688 "/></g></g></g><g fill="#ffffff" fill-opacity="1"><g transform="translate(77.44928, 297.21067)"><g><path d="M 19.984375 -5.953125 C 17.695312 -8.957031 14.808594 -9.375 12.253906 -7.429688 L 11.863281 -7.132812 L 13.925781 -4.425781 L 15.910156 -5.9375 C 16.992188 -6.761719 18.328125 -6.875 19.382812 -5.492188 C 20.4375 -4.109375 19.96875 -2.851562 18.886719 -2.027344 L 14.707031 1.15625 C 15.203125 -0.125 14.964844 -1.558594 13.890625 -2.972656 C 12.058594 -5.378906 9.667969 -5.460938 7.441406 -3.765625 L 4.164062 -1.269531 C 1.847656 0.492188 1.351562 2.773438 3.183594 5.179688 C 4.375 6.742188 5.746094 7.359375 7.300781 7.03125 L 6.527344 8.570312 L 8.015625 10.527344 L 8.617188 10.066406 L 19.351562 1.894531 C 21.910156 -0.0546875 22.273438 -2.945312 19.984375 -5.953125 Z M 10.285156 4.523438 L 8.660156 5.757812 C 7.578125 6.582031 6.308594 6.789062 5.1875 5.316406 C 4.109375 3.902344 4.539062 2.71875 5.683594 1.847656 L 10.042969 -1.472656 C 11.097656 -2.273438 12.410156 -2.417969 13.488281 -1.003906 C 14.539062 0.378906 14.105469 1.613281 13.019531 2.4375 L 11.367188 3.699219 Z M 10.285156 4.523438 "/></g></g></g><g fill="#ffffff" fill-opacity="1"><g transform="translate(87.273395, 309.963568)"><g><path d="M 19.117188 -8.328125 C 16.480469 -11.035156 13.539062 -11.074219 11.128906 -8.726562 L 4.519531 -2.292969 C 2.109375 0.0546875 2.070312 2.996094 4.710938 5.703125 C 7.347656 8.410156 10.285156 8.449219 12.695312 6.101562 L 13.96875 4.863281 L 11.597656 2.425781 L 8.753906 5.195312 C 7.777344 6.144531 6.464844 6.421875 5.25 5.175781 C 4.039062 3.929688 4.347656 2.625 5.324219 1.675781 L 15.074219 -7.820312 C 16.046875 -8.769531 17.363281 -9.046875 18.574219 -7.800781 C 19.789062 -6.554688 19.476562 -5.25 18.5 -4.296875 L 15.65625 -1.53125 L 18.03125 0.90625 L 19.304688 -0.332031 C 21.714844 -2.679688 21.753906 -5.617188 19.117188 -8.328125 Z M 19.117188 -8.328125 "/></g></g></g><g fill="#ffffff" fill-opacity="1"><g transform="translate(98.337116, 321.194589)"><g><path d="M 17.808594 -19.628906 L 1.175781 0.949219 L 3.820312 3.089844 L 9.523438 -3.964844 L 10.699219 -3.015625 L 7.964844 6.441406 L 10.730469 8.671875 L 14.605469 -3.457031 L 22.609375 -6.023438 L 21.90625 -6.59375 L 11.265625 -3.53125 L 10 -4.554688 L 20.457031 -17.488281 Z M 17.808594 -19.628906 "/></g></g></g><g fill="#ffffff" fill-opacity="1"><g transform="translate(110.211089, 330.539925)"><g/></g></g><g fill="#ffffff" fill-opacity="1"><g transform="translate(116.905765, 335.32304)"><g><path d="M 22.457031 -18.0625 L 17.039062 -20.921875 L 13.699219 -22.6875 L 13.34375 -22.019531 L 1.691406 0.0390625 L 1.335938 0.707031 L 4.679688 2.472656 L 10.09375 5.332031 C 12.765625 6.746094 16.191406 5.605469 17.621094 2.898438 L 18.574219 1.09375 C 19.757812 -1.144531 19.3125 -3.945312 17.609375 -5.65625 C 19.984375 -5.214844 22.546875 -6.425781 23.730469 -8.664062 L 24.6875 -10.46875 C 26.117188 -13.175781 25.128906 -16.648438 22.457031 -18.0625 Z M 16.6875 -20.253906 L 20.265625 -18.363281 C 22.101562 -17.394531 22.808594 -15.011719 21.785156 -13.070312 L 19.894531 -9.496094 C 18.851562 -7.523438 16.449219 -6.699219 14.613281 -7.667969 L 11.035156 -9.558594 Z M 10.683594 -8.890625 L 14.257812 -7 C 16.097656 -6.03125 16.769531 -3.578125 15.726562 -1.609375 L 13.839844 1.96875 C 12.8125 3.90625 10.445312 4.664062 8.609375 3.695312 L 5.03125 1.804688 Z M 10.683594 -8.890625 "/></g></g></g><g fill="#ffffff" fill-opacity="1"><g transform="translate(134.612723, 344.419579)"><g><path d="M 13.585938 -15.816406 C 10.035156 -17.105469 7.371094 -15.863281 6.222656 -12.699219 L 3.074219 -4.03125 C 1.925781 -0.871094 3.167969 1.792969 6.722656 3.085938 C 10.273438 4.375 12.9375 3.132812 14.085938 -0.03125 L 14.539062 -1.273438 L 11.339844 -2.4375 L 10.140625 0.867188 C 9.675781 2.148438 8.613281 2.96875 6.980469 2.375 C 5.34375 1.78125 5.058594 0.46875 5.523438 -0.808594 L 7.714844 -6.847656 L 15.53125 -4.011719 L 17.234375 -8.699219 C 18.382812 -11.863281 17.140625 -14.527344 13.585938 -15.816406 Z M 7.972656 -7.558594 L 10.167969 -13.601562 C 10.632812 -14.878906 11.695312 -15.699219 13.328125 -15.105469 C 14.964844 -14.511719 15.25 -13.203125 14.785156 -11.921875 L 12.59375 -5.882812 Z M 7.972656 -7.558594 "/></g></g></g><g fill="#ffffff" fill-opacity="1"><g transform="translate(149.7858, 349.841108)"><g><path d="M 11.550781 -17.359375 C 7.867188 -18.207031 5.382812 -16.683594 4.664062 -13.550781 L 4.554688 -13.070312 L 7.871094 -12.308594 L 8.429688 -14.742188 C 8.730469 -16.066406 9.6875 -17.011719 11.382812 -16.621094 C 13.074219 -16.234375 13.523438 -14.96875 13.21875 -13.640625 L 12.039062 -8.519531 C 11.601562 -9.824219 10.503906 -10.773438 8.769531 -11.171875 C 5.824219 -11.847656 3.9375 -10.382812 3.308594 -7.65625 L 2.386719 -3.640625 C 1.734375 -0.804688 2.8125 1.265625 5.757812 1.941406 C 7.675781 2.382812 9.125 1.980469 10.109375 0.730469 L 10.5 2.410156 L 12.894531 2.960938 L 13.0625 2.226562 L 16.085938 -10.925781 C 16.804688 -14.058594 15.234375 -16.511719 11.550781 -17.359375 Z M 10.796875 -3.105469 L 10.339844 -1.117188 C 10.035156 0.210938 9.191406 1.179688 7.386719 0.765625 C 5.65625 0.367188 5.230469 -0.816406 5.550781 -2.214844 L 6.777344 -7.558594 C 7.074219 -8.847656 7.992188 -9.800781 9.722656 -9.402344 C 11.417969 -9.011719 11.871094 -7.785156 11.566406 -6.457031 L 11.101562 -4.429688 Z M 10.796875 -3.105469 "/></g></g></g><g fill="#ffffff" fill-opacity="1"><g transform="translate(165.479054, 353.34233)"><g><path d="M 10.707031 -18.476562 C 8.753906 -18.683594 7.355469 -18.035156 6.53125 -16.714844 L 5.945312 -18.375 L 3.503906 -18.632812 L 3.421875 -17.882812 L 1.582031 -0.59375 L 1.503906 0.160156 L 4.886719 0.519531 L 4.964844 -0.230469 L 6.199219 -11.808594 L 6.527344 -14.890625 C 6.667969 -16.246094 7.503906 -17.296875 9.234375 -17.113281 C 11 -16.925781 11.550781 -15.6875 11.410156 -14.371094 L 10.871094 -9.296875 L 14.253906 -8.9375 L 14.722656 -13.335938 C 15.019531 -16.117188 13.714844 -18.15625 10.707031 -18.476562 Z M 10.707031 -18.476562 "/></g></g></g><g fill="#ffffff" fill-opacity="1"><g transform="translate(180.799946, 354.911688)"><g><path d="M 9.996094 -1.6875 L 10.773438 -0.148438 L 13.230469 -0.183594 L 13.21875 -0.9375 L 12.875 -25.882812 L 12.863281 -26.640625 L 9.460938 -26.59375 L 9.472656 -25.835938 L 9.582031 -17.785156 C 8.847656 -18.988281 7.554688 -19.609375 5.777344 -19.585938 C 2.753906 -19.542969 1.269531 -17.632812 1.308594 -14.835938 L 1.457031 -4.101562 C 1.496094 -1.191406 3.03125 0.5625 6.054688 0.519531 C 8.019531 0.492188 9.335938 -0.242188 9.996094 -1.6875 Z M 9.65625 -12.53125 L 9.738281 -6.636719 L 9.78125 -3.539062 C 9.796875 -2.175781 9.210938 -1.035156 7.359375 -1.007812 C 5.582031 -0.984375 4.886719 -2.035156 4.867188 -3.46875 L 4.699219 -15.566406 C 4.679688 -16.886719 5.34375 -18.070312 7.121094 -18.09375 C 8.859375 -18.117188 9.59375 -16.992188 9.613281 -15.632812 Z M 9.65625 -12.53125 "/></g></g></g><g fill="#ffffff" fill-opacity="1"><g transform="translate(196.535691, 354.474016)"><g/></g></g><g fill="#ffffff" fill-opacity="1"><g transform="translate(204.74058, 353.852884)"><g><path d="M 5.648438 -28.257812 L -0.339844 -26.980469 L -4.039062 -26.195312 L -3.878906 -25.453125 L 1.320312 -1.054688 L 1.480469 -0.316406 L 5.175781 -1.101562 L 11.164062 -2.378906 C 14.121094 -3.011719 16.019531 -6.082031 15.378906 -9.078125 L 14.953125 -11.074219 C 14.425781 -13.550781 12.289062 -15.414062 9.886719 -15.632812 C 11.992188 -16.816406 13.179688 -19.390625 12.652344 -21.867188 L 12.226562 -23.863281 C 11.589844 -26.859375 8.605469 -28.890625 5.648438 -28.257812 Z M -0.183594 -26.242188 L 3.773438 -27.085938 C 5.804688 -27.519531 7.875 -26.144531 8.332031 -24 L 9.175781 -20.042969 C 9.640625 -17.863281 8.328125 -15.6875 6.292969 -15.253906 L 2.339844 -14.414062 Z M 2.496094 -13.671875 L 6.453125 -14.515625 C 8.484375 -14.949219 10.570312 -13.5 11.035156 -11.320312 L 11.878906 -7.363281 C 12.335938 -5.21875 11.007812 -3.121094 8.972656 -2.6875 L 5.019531 -1.84375 Z M 2.496094 -13.671875 "/></g></g></g><g fill="#ffffff" fill-opacity="1"><g transform="translate(224.160166, 349.476225)"><g><path d="M 0.28125 -20.847656 C -3.269531 -19.5625 -4.53125 -16.933594 -3.433594 -13.914062 L -3.269531 -13.449219 L -0.0703125 -14.609375 L -0.917969 -16.957031 C -1.382812 -18.234375 -1.09375 -19.546875 0.539062 -20.136719 C 2.175781 -20.730469 3.238281 -19.910156 3.699219 -18.628906 L 5.492188 -13.691406 C 4.417969 -14.546875 2.976562 -14.75 1.304688 -14.144531 C -1.535156 -13.113281 -2.328125 -10.855469 -1.375 -8.226562 L 0.03125 -4.351562 C 1.023438 -1.617188 3.050781 -0.460938 5.890625 -1.492188 C 7.738281 -2.164062 8.738281 -3.289062 8.890625 -4.871094 L 10.128906 -3.671875 L 12.4375 -4.507812 L 12.179688 -5.21875 L 7.582031 -17.90625 C 6.488281 -20.925781 3.835938 -22.136719 0.28125 -20.847656 Z M 7.382812 -8.464844 L 8.082031 -6.546875 C 8.542969 -5.269531 8.363281 -3.996094 6.621094 -3.363281 C 4.949219 -2.757812 3.949219 -3.523438 3.460938 -4.871094 L 1.59375 -10.027344 C 1.140625 -11.269531 1.394531 -12.566406 3.066406 -13.171875 C 4.699219 -13.765625 5.75 -12.980469 6.210938 -11.699219 L 6.921875 -9.746094 Z M 7.382812 -8.464844 "/></g></g></g><g fill="#ffffff" fill-opacity="1"><g transform="translate(239.242172, 343.902215)"><g><path d="M -1.03125 -21.328125 C -2.785156 -20.445312 -3.609375 -19.140625 -3.585938 -17.582031 L -4.976562 -18.660156 L -7.167969 -17.554688 L -6.828125 -16.878906 L 1.007812 -1.355469 L 1.351562 -0.679688 L 4.386719 -2.214844 L 4.046875 -2.890625 L -1.203125 -13.28125 L -2.597656 -16.050781 C -3.210938 -17.265625 -3.082031 -18.601562 -1.53125 -19.382812 C 0.0546875 -20.183594 1.191406 -19.445312 1.789062 -18.265625 L 4.089844 -13.707031 L 7.125 -15.242188 L 5.132812 -19.191406 C 3.871094 -21.6875 1.667969 -22.691406 -1.03125 -21.328125 Z M -1.03125 -21.328125 "/></g></g></g><g fill="#ffffff" fill-opacity="1"><g transform="translate(252.963064, 336.907178)"><g><path d="M -3.636719 -21.011719 C -5.113281 -20.027344 -5.828125 -18.78125 -5.753906 -17.375 L -10.21875 -24.078125 L -10.636719 -24.707031 L -13.46875 -22.820312 L -13.046875 -22.191406 L 0.777344 -1.425781 L 1.195312 -0.796875 L 3.210938 -2.136719 L 3.242188 -2.15625 L 3.011719 -3.867188 C 4.375 -3.046875 5.871094 -3.183594 7.507812 -4.273438 C 10.027344 -5.949219 10.300781 -8.265625 8.6875 -10.6875 L 2.738281 -19.625 C 1.1875 -21.953125 -1.117188 -22.6875 -3.636719 -21.011719 Z M 0.425781 -8.09375 L -2.84375 -13 L -4.5625 -15.582031 C -5.316406 -16.714844 -5.347656 -18.054688 -3.898438 -19.019531 C -2.417969 -20.003906 -1.203125 -19.40625 -0.46875 -18.304688 L 6.234375 -8.234375 C 7.027344 -7.039062 7.046875 -5.78125 5.570312 -4.796875 C 4.027344 -3.773438 2.894531 -4.378906 2.140625 -5.511719 Z M 0.425781 -8.09375 "/></g></g></g><g fill="#ffffff" fill-opacity="1"><g transform="translate(266.328432, 327.90816)"><g><path d="M -7.125 -19.597656 C -9.992188 -17.132812 -10.210938 -14.199219 -8.019531 -11.648438 L -2.007812 -4.65625 C 0.1875 -2.105469 3.117188 -1.882812 5.984375 -4.347656 C 8.851562 -6.808594 9.070312 -9.742188 6.878906 -12.292969 L 6.015625 -13.296875 L 3.4375 -11.078125 L 5.726562 -8.414062 C 6.617188 -7.378906 6.808594 -6.050781 5.492188 -4.917969 C 4.171875 -3.785156 2.890625 -4.179688 2 -5.210938 L -2.1875 -10.082031 L 4.121094 -15.503906 L 0.867188 -19.289062 C -1.324219 -21.839844 -4.257812 -22.058594 -7.125 -19.597656 Z M -2.679688 -10.65625 L -6.867188 -15.53125 C -7.753906 -16.5625 -7.949219 -17.890625 -6.632812 -19.023438 C -5.3125 -20.15625 -4.027344 -19.765625 -3.140625 -18.734375 L 1.046875 -13.859375 Z M -2.679688 -10.65625 "/></g></g></g><g fill="#ffffff" fill-opacity="1"><g transform="translate(278.492655, 317.341836)"><g><path d="M -9.46875 -18.578125 C -12.011719 -15.78125 -11.898438 -12.871094 -9.523438 -10.707031 L -9.160156 -10.378906 L -6.871094 -12.894531 L -8.714844 -14.574219 C -9.722656 -15.488281 -10.078125 -16.78125 -8.910156 -18.070312 C -7.738281 -19.355469 -6.417969 -19.125 -5.410156 -18.207031 L -1.523438 -14.671875 C -2.871094 -14.929688 -4.242188 -14.4375 -5.4375 -13.121094 C -7.472656 -10.886719 -7.117188 -8.519531 -5.050781 -6.636719 L -2.003906 -3.867188 C 0.152344 -1.90625 2.480469 -1.828125 4.515625 -4.066406 C 5.839844 -5.519531 6.199219 -6.984375 5.59375 -8.453125 L 7.25 -7.96875 L 8.902344 -9.785156 L 8.34375 -10.296875 L -1.636719 -19.375 C -4.015625 -21.539062 -6.921875 -21.375 -9.46875 -18.578125 Z M 2.585938 -10.933594 L 4.097656 -9.558594 C 5.105469 -8.644531 5.535156 -7.433594 4.289062 -6.0625 C 3.09375 -4.75 1.851562 -4.957031 0.789062 -5.925781 L -3.265625 -9.613281 C -4.242188 -10.503906 -4.625 -11.769531 -3.429688 -13.082031 C -2.257812 -14.371094 -0.964844 -14.164062 0.0429688 -13.246094 L 1.582031 -11.847656 Z M 2.585938 -10.933594 "/></g></g></g><g fill="#ffffff" fill-opacity="1"><g transform="translate(289.238367, 305.380944)"><g><path d="M -10.851562 -18.390625 C -11.992188 -16.789062 -12.113281 -15.25 -11.367188 -13.886719 L -13.097656 -14.191406 L -14.523438 -12.1875 L -13.90625 -11.75 L 0.261719 -1.671875 L 0.875 -1.230469 L 2.847656 -4.003906 L 2.234375 -4.441406 L -7.253906 -11.191406 L -9.78125 -12.988281 C -10.886719 -13.777344 -11.394531 -15.019531 -10.386719 -16.4375 C -9.359375 -17.882812 -8.007812 -17.757812 -6.929688 -16.992188 L -2.773438 -14.035156 L -0.800781 -16.804688 L -4.402344 -19.371094 C -6.683594 -20.992188 -9.101562 -20.855469 -10.851562 -18.390625 Z M -10.851562 -18.390625 "/></g></g></g><g fill="#ffffff" fill-opacity="1"><g transform="translate(297.771904, 293.037913)"><g><path d="M -22.121094 -14.582031 L -18.863281 -12.660156 L -16.945312 -15.917969 L -20.199219 -17.835938 Z M -13.132812 -13.449219 L -13.785156 -13.832031 L -15.511719 -10.902344 L -14.859375 -10.519531 L 0.117188 -1.6875 L 0.769531 -1.300781 L 2.496094 -4.234375 L 1.84375 -4.617188 Z M -13.132812 -13.449219 "/></g></g></g><g fill="#ffffff" fill-opacity="1"><g transform="translate(301.697071, 286.654145)"><g><path d="M -14.441406 -15.042969 C -16.066406 -11.628906 -15.117188 -8.875 -12.214844 -7.492188 L -11.773438 -7.28125 L -10.308594 -10.351562 L -12.5625 -11.425781 C -13.789062 -12.011719 -14.503906 -13.148438 -13.757812 -14.714844 C -13.011719 -16.285156 -11.675781 -16.449219 -10.449219 -15.863281 L -5.703125 -13.601562 C -7.070312 -13.457031 -8.238281 -12.589844 -9.003906 -10.988281 C -10.304688 -8.257812 -9.28125 -6.09375 -6.753906 -4.890625 L -3.035156 -3.121094 C -0.40625 -1.867188 1.847656 -2.46875 3.148438 -5.199219 C 3.992188 -6.976562 3.914062 -8.476562 2.90625 -9.710938 L 4.632812 -9.726562 L 5.6875 -11.945312 L 5.007812 -12.269531 L -7.175781 -18.070312 C -10.078125 -19.453125 -12.816406 -18.453125 -14.441406 -15.042969 Z M -0.6875 -11.214844 L 1.15625 -10.335938 C 2.382812 -9.75 3.148438 -8.71875 2.351562 -7.042969 C 1.585938 -5.441406 0.339844 -5.28125 -0.957031 -5.898438 L -5.90625 -8.257812 C -7.101562 -8.824219 -7.832031 -9.925781 -7.070312 -11.53125 C -6.320312 -13.101562 -5.023438 -13.277344 -3.792969 -12.691406 L -1.917969 -11.796875 Z M -0.6875 -11.214844 "/></g></g></g><g fill="#ffffff" fill-opacity="1"><g transform="translate(84.484635, 102.700994)"><g><path d="M -18.652344 -21.96875 L -21.367188 -16.480469 L -23.042969 -13.09375 L -22.367188 -12.757812 L -0.0078125 -1.691406 L 0.671875 -1.355469 L 2.347656 -4.742188 L 5.0625 -10.230469 C 6.40625 -12.941406 5.175781 -16.335938 2.429688 -17.691406 L 0.601562 -18.597656 C -1.667969 -19.722656 -4.457031 -19.203125 -6.121094 -17.453125 C -5.742188 -19.839844 -7.023438 -22.371094 -9.292969 -23.492188 L -11.121094 -24.398438 C -13.867188 -25.757812 -17.308594 -24.679688 -18.652344 -21.96875 Z M -20.691406 -16.144531 L -18.894531 -19.769531 C -17.972656 -21.632812 -15.609375 -22.402344 -13.644531 -21.429688 L -10.019531 -19.636719 C -8.019531 -18.648438 -7.132812 -16.265625 -8.054688 -14.402344 L -9.847656 -10.777344 Z M -9.171875 -10.445312 L -7.378906 -14.070312 C -6.453125 -15.933594 -4.023438 -16.667969 -2.023438 -15.679688 L 1.601562 -13.886719 C 3.566406 -12.914062 4.386719 -10.566406 3.464844 -8.703125 L 1.667969 -5.078125 Z M -9.171875 -10.445312 "/></g></g></g><g fill="#ffffff" fill-opacity="1"><g transform="translate(92.347214, 87.376425)"><g><path d="M -19.117188 -17.867188 L -19.757812 -18.273438 L -21.574219 -15.394531 L -20.933594 -14.992188 L 0.167969 -1.683594 L 0.804688 -1.277344 L 2.621094 -4.15625 L 1.980469 -4.558594 Z M -19.117188 -17.867188 "/></g></g></g><g fill="#ffffff" fill-opacity="1"><g transform="translate(95.07113, 82.630483)"><g><path d="M -11.054688 -17.679688 C -13.34375 -14.671875 -12.980469 -11.78125 -10.421875 -9.835938 L -10.03125 -9.539062 L -7.96875 -12.246094 L -9.957031 -13.757812 C -11.039062 -14.582031 -11.503906 -15.839844 -10.453125 -17.222656 C -9.398438 -18.605469 -8.0625 -18.492188 -6.976562 -17.664062 L -2.796875 -14.484375 C -4.164062 -14.621094 -5.484375 -14.011719 -6.5625 -12.597656 C -8.394531 -10.191406 -7.835938 -7.867188 -5.609375 -6.171875 L -2.332031 -3.675781 C -0.015625 -1.914062 2.3125 -2.039062 4.144531 -4.445312 C 5.335938 -6.007812 5.566406 -7.496094 4.835938 -8.910156 L 6.527344 -8.570312 L 8.015625 -10.527344 L 7.414062 -10.984375 L -3.324219 -19.160156 C -5.878906 -21.105469 -8.761719 -20.6875 -11.054688 -17.679688 Z M 1.621094 -11.117188 L 3.246094 -9.878906 C 4.328125 -9.054688 4.867188 -7.886719 3.742188 -6.414062 C 2.667969 -5 1.414062 -5.101562 0.269531 -5.96875 L -4.089844 -9.289062 C -5.144531 -10.09375 -5.632812 -11.320312 -4.558594 -12.734375 C -3.503906 -14.117188 -2.195312 -14.023438 -1.113281 -13.199219 L 0.539062 -11.941406 Z M 1.621094 -11.117188 "/></g></g></g><g fill="#ffffff" fill-opacity="1"><g transform="translate(103.141121, 71.912436)"><g><path d="M -8.832031 -18.886719 C -11.46875 -16.179688 -11.429688 -13.242188 -9.019531 -10.894531 L -2.410156 -4.457031 C 0 -2.113281 2.9375 -2.152344 5.574219 -4.859375 C 8.214844 -7.566406 8.175781 -10.507812 5.765625 -12.855469 L 4.492188 -14.09375 L 2.117188 -11.65625 L 4.960938 -8.886719 C 5.9375 -7.9375 6.246094 -6.632812 5.035156 -5.386719 C 3.820312 -4.140625 2.507812 -4.417969 1.53125 -5.367188 L -8.214844 -14.859375 C -9.191406 -15.808594 -9.503906 -17.117188 -8.289062 -18.359375 C -7.078125 -19.605469 -5.761719 -19.332031 -4.789062 -18.378906 L -1.945312 -15.613281 L 0.429688 -18.050781 L -0.84375 -19.289062 C -3.253906 -21.636719 -6.195312 -21.597656 -8.832031 -18.886719 Z M -8.832031 -18.886719 "/></g></g></g><g fill="#ffffff" fill-opacity="1"><g transform="translate(112.260615, 62.453936)"><g><path d="M -15.457031 -21.527344 L 1.175781 -0.949219 L 3.820312 -3.089844 L -1.882812 -10.144531 L -0.707031 -11.09375 L 7.964844 -6.441406 L 10.730469 -8.671875 L -0.316406 -15.003906 L -1.152344 -23.371094 L -1.855469 -22.800781 L -1.09375 -11.753906 L -2.355469 -10.730469 L -12.8125 -23.667969 Z M -15.457031 -21.527344 "/></g></g></g><g fill="#ffffff" fill-opacity="1"><g transform="translate(122.566126, 54.266161)"><g/></g></g><g fill="#ffffff" fill-opacity="1"><g transform="translate(127.253438, 50.683425)"><g><path d="M -2.269531 -28.726562 L -7.683594 -25.867188 L -11.023438 -24.101562 L -10.671875 -23.433594 L 0.984375 -1.375 L 1.335938 -0.707031 L 4.679688 -2.472656 L 10.09375 -5.332031 C 12.765625 -6.746094 13.753906 -10.21875 12.324219 -12.925781 L 11.371094 -14.730469 C 10.1875 -16.96875 7.625 -18.179688 5.25 -17.738281 C 6.953125 -19.449219 7.394531 -22.25 6.214844 -24.488281 L 5.257812 -26.292969 C 3.828125 -29 0.40625 -30.140625 -2.269531 -28.726562 Z M -7.328125 -25.199219 L -3.753906 -27.089844 C -1.914062 -28.058594 0.453125 -27.300781 1.476562 -25.363281 L 3.367188 -21.785156 C 4.40625 -19.816406 3.734375 -17.363281 1.898438 -16.394531 L -1.679688 -14.503906 Z M -1.324219 -13.835938 L 2.25 -15.726562 C 4.089844 -16.695312 6.492188 -15.871094 7.535156 -13.898438 L 9.421875 -10.324219 C 10.449219 -8.386719 9.738281 -6 7.902344 -5.03125 L 4.324219 -3.140625 Z M -1.324219 -13.835938 "/></g></g></g><g fill="#ffffff" fill-opacity="1"><g transform="translate(142.173964, 42.822061)"><g><path d="M 0.269531 -20.847656 C -3.285156 -19.558594 -4.527344 -16.894531 -3.378906 -13.734375 L -0.230469 -5.0625 C 0.917969 -1.902344 3.582031 -0.65625 7.132812 -1.949219 C 10.6875 -3.238281 11.933594 -5.902344 10.785156 -9.0625 L 10.332031 -10.308594 L 7.132812 -9.144531 L 8.335938 -5.84375 C 8.796875 -4.5625 8.511719 -3.253906 6.875 -2.660156 C 5.242188 -2.066406 4.179688 -2.886719 3.714844 -4.164062 L 1.523438 -10.203125 L 9.339844 -13.042969 L 7.632812 -17.734375 C 6.484375 -20.894531 3.824219 -22.140625 0.269531 -20.847656 Z M 1.261719 -10.914062 L -0.929688 -16.957031 C -1.394531 -18.234375 -1.105469 -19.546875 0.527344 -20.140625 C 2.160156 -20.730469 3.222656 -19.910156 3.6875 -18.632812 L 5.882812 -12.59375 Z M 1.261719 -10.914062 "/></g></g></g><g fill="#ffffff" fill-opacity="1"><g transform="translate(154.743764, 38.16912)"><g><path d="M 2.816406 -20.660156 C -0.867188 -19.8125 -2.4375 -17.359375 -1.714844 -14.226562 L -1.605469 -13.75 L 1.710938 -14.511719 L 1.152344 -16.941406 C 0.847656 -18.269531 1.292969 -19.535156 2.988281 -19.921875 C 4.683594 -20.3125 5.636719 -19.367188 5.941406 -18.042969 L 7.117188 -12.921875 C 6.152344 -13.902344 4.75 -14.277344 3.019531 -13.878906 C 0.0703125 -13.203125 -0.988281 -11.058594 -0.363281 -8.332031 L 0.558594 -4.316406 C 1.210938 -1.480469 3.082031 -0.0859375 6.03125 -0.765625 C 7.945312 -1.203125 9.074219 -2.199219 9.414062 -3.753906 L 10.5 -2.410156 L 12.894531 -2.960938 L 12.726562 -3.699219 L 9.703125 -16.851562 C 8.984375 -19.980469 6.5 -21.507812 2.816406 -20.660156 Z M 8.359375 -7.503906 L 8.816406 -5.515625 C 9.121094 -4.1875 8.785156 -2.949219 6.980469 -2.535156 C 5.25 -2.136719 4.347656 -3.015625 4.027344 -4.414062 L 2.800781 -9.757812 C 2.503906 -11.046875 2.914062 -12.304688 4.644531 -12.703125 C 6.339844 -13.089844 7.285156 -12.183594 7.589844 -10.859375 L 8.054688 -8.832031 Z M 8.359375 -7.503906 "/></g></g></g><g fill="#ffffff" fill-opacity="1"><g transform="translate(167.821622, 35.105718)"><g><path d="M 6.582031 -20.316406 C 4.628906 -20.105469 3.394531 -19.179688 2.867188 -17.714844 L 1.949219 -19.214844 L -0.496094 -18.953125 L -0.414062 -18.203125 L 1.421875 -0.910156 L 1.503906 -0.160156 L 4.886719 -0.519531 L 4.804688 -1.273438 L 3.574219 -12.847656 L 3.246094 -15.929688 C 3.101562 -17.285156 3.699219 -18.488281 5.425781 -18.671875 C 7.191406 -18.859375 7.992188 -17.765625 8.132812 -16.449219 L 8.671875 -11.375 L 12.054688 -11.734375 L 11.589844 -16.132812 C 11.292969 -18.914062 9.589844 -20.636719 6.582031 -20.316406 Z M 6.582031 -20.316406 "/></g></g></g><g fill="#ffffff" fill-opacity="1"><g transform="translate(180.493524, 33.658463)"><g><path d="M 10.039062 -1.410156 L 10.773438 0.148438 L 13.230469 0.183594 L 13.238281 -0.574219 L 13.585938 -25.519531 L 13.59375 -26.273438 L 10.191406 -26.320312 L 10.183594 -25.566406 L 10.070312 -17.515625 C 9.371094 -18.734375 8.09375 -19.394531 6.316406 -19.417969 C 3.292969 -19.460938 1.753906 -17.59375 1.71875 -14.796875 L 1.566406 -4.0625 C 1.527344 -1.152344 3.015625 0.648438 6.039062 0.6875 C 8.003906 0.714844 9.335938 0.015625 10.039062 -1.410156 Z M 10 -12.261719 L 9.917969 -6.363281 L 9.875 -3.265625 C 9.855469 -1.90625 9.234375 -0.78125 7.382812 -0.804688 C 5.605469 -0.828125 4.941406 -1.898438 4.960938 -3.332031 L 5.128906 -15.429688 C 5.144531 -16.75 5.84375 -17.914062 7.621094 -17.890625 C 9.359375 -17.863281 10.058594 -16.722656 10.042969 -15.359375 Z M 10 -12.261719 "/></g></g></g><g fill="#ffffff" fill-opacity="1"><g transform="translate(194.227754, 33.977699)"><g/></g></g><g fill="#ffffff" fill-opacity="1"><g transform="translate(200.122585, 34.232609)"><g><path d="M 16.683594 -23.5 L 10.691406 -24.773438 L 6.996094 -25.5625 L 6.839844 -24.824219 L 1.636719 -0.425781 L 1.480469 0.316406 L 5.175781 1.101562 L 11.164062 2.378906 C 14.121094 3.011719 17.105469 0.980469 17.746094 -2.015625 L 18.171875 -4.011719 C 18.699219 -6.488281 17.507812 -9.0625 15.402344 -10.242188 C 17.808594 -10.464844 19.941406 -12.328125 20.472656 -14.804688 L 20.898438 -16.800781 C 21.535156 -19.796875 19.640625 -22.867188 16.683594 -23.5 Z M 10.535156 -24.035156 L 14.492188 -23.191406 C 16.523438 -22.757812 17.855469 -20.660156 17.398438 -18.515625 L 16.554688 -14.558594 C 16.089844 -12.378906 14.003906 -10.929688 11.96875 -11.363281 L 8.011719 -12.207031 Z M 7.855469 -11.464844 L 11.8125 -10.621094 C 13.84375 -10.1875 15.160156 -8.015625 14.695312 -5.835938 L 13.851562 -1.878906 C 13.394531 0.265625 11.324219 1.640625 9.289062 1.207031 L 5.332031 0.363281 Z M 7.855469 -11.464844 "/></g></g></g><g fill="#ffffff" fill-opacity="1"><g transform="translate(216.612015, 37.770192)"><g><path d="M 13.578125 -15.824219 C 10.023438 -17.113281 7.375 -15.902344 6.277344 -12.882812 L 6.109375 -12.421875 L 9.308594 -11.261719 L 10.160156 -13.605469 C 10.621094 -14.886719 11.683594 -15.707031 13.320312 -15.113281 C 14.953125 -14.523438 15.242188 -13.210938 14.777344 -11.929688 L 12.988281 -6.992188 C 12.710938 -8.339844 11.734375 -9.417969 10.066406 -10.023438 C 7.222656 -11.050781 5.171875 -9.824219 4.21875 -7.195312 L 2.8125 -3.324219 C 1.820312 -0.585938 2.636719 1.597656 5.480469 2.628906 C 7.328125 3.300781 8.816406 3.074219 9.945312 1.957031 L 10.128906 3.671875 L 12.4375 4.507812 L 12.695312 3.796875 L 17.292969 -8.890625 C 18.390625 -11.910156 17.128906 -14.535156 13.578125 -15.824219 Z M 11.09375 -1.769531 L 10.398438 0.152344 C 9.933594 1.429688 8.980469 2.289062 7.238281 1.660156 C 5.570312 1.054688 5.289062 -0.171875 5.777344 -1.523438 L 7.648438 -6.675781 C 8.097656 -7.921875 9.125 -8.753906 10.792969 -8.148438 C 12.429688 -7.554688 12.730469 -6.28125 12.265625 -5 L 11.558594 -3.046875 Z M 11.09375 -1.769531 "/></g></g></g><g fill="#ffffff" fill-opacity="1"><g transform="translate(229.259528, 42.292864)"><g><path d="M 16.550781 -13.492188 C 14.796875 -14.378906 13.257812 -14.265625 12.019531 -13.324219 L 12.0625 -15.082031 L 9.867188 -16.191406 L 9.527344 -15.515625 L 1.691406 0.0078125 L 1.351562 0.679688 L 4.386719 2.214844 L 4.726562 1.539062 L 9.976562 -8.851562 L 11.371094 -11.621094 C 11.984375 -12.835938 13.136719 -13.523438 14.691406 -12.738281 C 16.273438 -11.9375 16.355469 -10.585938 15.757812 -9.40625 L 13.457031 -4.851562 L 16.496094 -3.316406 L 18.488281 -7.265625 C 19.75 -9.761719 19.25 -12.128906 16.550781 -13.492188 Z M 16.550781 -13.492188 "/></g></g></g><g fill="#ffffff" fill-opacity="1"><g transform="translate(240.689051, 47.953131)"><g><path d="M 17.984375 -11.460938 C 16.503906 -12.445312 15.078125 -12.621094 13.808594 -12.011719 L 18.273438 -18.714844 L 18.691406 -19.34375 L 15.859375 -21.230469 L 15.441406 -20.601562 L 1.613281 0.167969 L 1.195312 0.796875 L 3.210938 2.136719 L 3.242188 2.15625 L 4.730469 1.285156 C 4.5 2.859375 5.203125 4.191406 6.839844 5.28125 C 9.355469 6.957031 11.597656 6.3125 13.210938 3.890625 L 19.160156 -5.042969 C 20.710938 -7.371094 20.5 -9.785156 17.984375 -11.460938 Z M 7.628906 -2.730469 L 10.898438 -7.640625 L 12.617188 -10.21875 C 13.371094 -11.351562 14.597656 -11.898438 16.042969 -10.933594 C 17.523438 -9.949219 17.441406 -8.597656 16.707031 -7.496094 L 10.003906 2.574219 C 9.207031 3.769531 8.054688 4.273438 6.574219 3.289062 C 5.035156 2.261719 5.160156 0.980469 5.914062 -0.152344 Z M 7.628906 -2.730469 "/></g></g></g><g fill="#ffffff" fill-opacity="1"><g transform="translate(251.891396, 55.312291)"><g><path d="M 18.304688 -9.988281 C 15.4375 -12.449219 12.503906 -12.230469 10.3125 -9.679688 L 4.300781 -2.683594 C 2.109375 -0.132812 2.328125 2.800781 5.195312 5.261719 C 8.0625 7.726562 10.992188 7.503906 13.1875 4.953125 L 14.050781 3.949219 L 11.46875 1.734375 L 9.179688 4.398438 C 8.289062 5.429688 7.007812 5.824219 5.6875 4.691406 C 4.371094 3.554688 4.5625 2.226562 5.453125 1.195312 L 9.640625 -3.675781 L 15.945312 1.742188 L 19.199219 -2.039062 C 21.390625 -4.589844 21.171875 -7.523438 18.304688 -9.988281 Z M 10.132812 -4.25 L 14.320312 -9.125 C 15.207031 -10.15625 16.492188 -10.546875 17.8125 -9.414062 C 19.128906 -8.28125 18.933594 -6.953125 18.046875 -5.921875 L 13.859375 -1.046875 Z M 10.132812 -4.25 "/></g></g></g><g fill="#ffffff" fill-opacity="1"><g transform="translate(262.109429, 63.986487)"><g><path d="M 19.386719 -7.671875 C 16.84375 -10.46875 13.933594 -10.632812 11.558594 -8.472656 L 11.195312 -8.140625 L 13.484375 -5.625 L 15.328125 -7.304688 C 16.335938 -8.21875 17.660156 -8.449219 18.828125 -7.164062 C 20 -5.878906 19.644531 -4.582031 18.636719 -3.667969 L 14.75 -0.132812 C 15.132812 -1.453125 14.773438 -2.859375 13.578125 -4.175781 C 11.542969 -6.410156 9.152344 -6.285156 7.085938 -4.402344 L 4.039062 -1.628906 C 1.882812 0.328125 1.585938 2.644531 3.621094 4.878906 C 4.945312 6.335938 6.367188 6.828125 7.886719 6.367188 L 7.25 7.96875 L 8.902344 9.785156 L 9.460938 9.277344 L 19.445312 0.195312 C 21.820312 -1.964844 21.929688 -4.878906 19.386719 -7.671875 Z M 10.640625 3.605469 L 9.128906 4.980469 C 8.125 5.894531 6.878906 6.210938 5.632812 4.84375 C 4.4375 3.527344 4.761719 2.3125 5.824219 1.34375 L 9.878906 -2.34375 C 10.855469 -3.234375 12.152344 -3.492188 13.347656 -2.179688 C 14.519531 -0.890625 14.191406 0.375 13.183594 1.292969 L 11.648438 2.691406 Z M 10.640625 3.605469 "/></g></g></g><g fill="#ffffff" fill-opacity="1"><g transform="translate(271.191284, 73.882554)"><g><path d="M 20.933594 -4.222656 C 19.792969 -5.824219 18.378906 -6.441406 16.84375 -6.1875 L 17.699219 -7.722656 L 16.277344 -9.722656 L 15.660156 -9.285156 L 1.492188 0.792969 L 0.875 1.230469 L 2.847656 4.003906 L 3.464844 3.566406 L 12.953125 -3.183594 L 15.476562 -4.980469 C 16.585938 -5.769531 17.925781 -5.839844 18.933594 -4.425781 C 19.964844 -2.976562 19.402344 -1.742188 18.324219 -0.976562 L 14.167969 1.980469 L 16.140625 4.753906 L 19.742188 2.191406 C 22.023438 0.570312 22.6875 -1.757812 20.933594 -4.222656 Z M 20.933594 -4.222656 "/></g></g></g><g fill="#ffffff" fill-opacity="1"><g transform="translate(278.694004, 84.637016)"><g><path d="M 23.464844 -12.300781 L 20.207031 -10.382812 L 22.128906 -7.125 L 25.382812 -9.046875 Z M 18.125 -4.984375 L 18.777344 -5.367188 L 17.046875 -8.296875 L 16.398438 -7.914062 L 1.417969 0.917969 L 0.769531 1.300781 L 2.496094 4.234375 L 3.148438 3.847656 Z M 18.125 -4.984375 "/></g></g></g><g fill="#ffffff" fill-opacity="1"><g transform="translate(281.700773, 89.293446)"><g><path d="M 20.777344 -1.730469 C 19.152344 -5.144531 16.417969 -6.144531 13.515625 -4.761719 L 13.074219 -4.550781 L 14.535156 -1.480469 L 16.789062 -2.550781 C 18.015625 -3.136719 19.347656 -2.976562 20.097656 -1.40625 C 20.84375 0.164062 20.128906 1.296875 18.902344 1.882812 L 14.15625 4.144531 C 14.90625 2.992188 14.96875 1.539062 14.203125 -0.0664062 C 12.902344 -2.796875 10.582031 -3.363281 8.054688 -2.160156 L 4.335938 -0.390625 C 1.707031 0.859375 0.753906 2.988281 2.054688 5.71875 C 2.898438 7.496094 4.117188 8.378906 5.707031 8.378906 L 4.632812 9.726562 L 5.6875 11.945312 L 6.371094 11.621094 L 18.554688 5.816406 C 21.457031 4.433594 22.40625 1.679688 20.777344 -1.730469 Z M 9.140625 6.53125 L 7.296875 7.410156 C 6.070312 7.996094 4.785156 7.9375 3.988281 6.265625 C 3.226562 4.660156 3.886719 3.589844 5.183594 2.972656 L 10.132812 0.617188 C 11.328125 0.046875 12.644531 0.175781 13.40625 1.777344 C 14.15625 3.347656 13.472656 4.46875 12.246094 5.054688 L 10.367188 5.949219 Z M 9.140625 6.53125 "/></g></g></g><g clip-path="url(#8dfbfd46c2)"><g clip-path="url(#d44c2a9c1c)"><g clip-path="url(#d6549f9629)"><g clip-path="url(#592434c0d5)"><path fill="#000000" d="M 83.296875 198.835938 C 82.636719 198.464844 80.90625 197.195312 79.308594 196.050781 C 77.707031 194.910156 76.238281 193.894531 74.296875 192.691406 C 72.355469 191.484375 69.933594 190.085938 67.683594 188.632812 C 65.433594 187.179688 63.347656 185.667969 61.5 183.851562 C 59.652344 182.035156 58.042969 179.910156 56.976562 177.742188 C 55.914062 175.570312 55.394531 173.355469 55.464844 171.070312 C 55.535156 168.78125 56.203125 166.425781 57.246094 164.210938 C 58.289062 161.988281 59.710938 159.910156 61.03125 157.808594 C 62.355469 155.707031 63.578125 153.578125 64.316406 151.34375 C 65.054688 149.113281 65.308594 146.769531 65.171875 144.808594 C 65.03125 142.847656 64.5 141.265625 63.964844 139.871094 C 63.429688 138.472656 62.890625 137.265625 62.28125 136.292969 C 61.667969 135.324219 60.988281 134.589844 60.636719 134.222656 C 60.28125 133.855469 60.25 133.855469 60.984375 134.503906 C 61.71875 135.15625 63.210938 136.460938 64.972656 138.136719 C 66.730469 139.816406 68.757812 141.867188 70.464844 144.1875 C 72.167969 146.511719 73.554688 149.101562 74.292969 151.429688 C 75.035156 153.753906 75.132812 155.8125 74.695312 157.84375 C 74.253906 159.878906 73.28125 161.886719 72.066406 163.640625 C 70.855469 165.394531 69.410156 166.894531 68.246094 168.460938 C 67.082031 170.035156 66.207031 171.675781 66.054688 173.855469 C 65.90625 176.03125 66.492188 178.746094 67.824219 181.390625 C 69.160156 184.035156 71.246094 186.613281 73.332031 188.785156 C 75.417969 190.957031 77.503906 192.726562 79.140625 194.21875 C 80.773438 195.710938 81.957031 196.925781 82.75 197.800781 C 83.546875 198.671875 83.957031 199.207031 83.296875 198.835938 Z M 66.859375 181.199219 L 66.699219 182.464844 C 66.421875 182.132812 66.097656 181.699219 65.757812 181.203125 L 66.054688 178.890625 C 66.183594 179.320312 66.324219 179.753906 66.480469 180.1875 C 66.605469 180.53125 66.734375 180.875 66.859375 181.199219 Z M 67.160156 182.972656 L 67.253906 182.230469 C 67.449219 182.753906 67.554688 183.117188 67.457031 183.15625 C 67.410156 183.175781 67.304688 183.109375 67.160156 182.972656 Z M 65.699219 177.550781 L 65.316406 180.542969 C 65.269531 180.472656 65.226562 180.402344 65.179688 180.328125 C 64.945312 179.960938 64.714844 179.574219 64.492188 179.175781 L 67.515625 155.542969 C 68.039062 154.21875 68.417969 152.933594 68.625 151.75 C 68.917969 150.066406 68.867188 148.582031 68.597656 147.125 L 69.035156 143.707031 C 69.210938 143.917969 69.386719 144.132812 69.570312 144.355469 C 69.65625 144.460938 69.742188 144.570312 69.832031 144.683594 L 66.714844 169.015625 C 66.171875 169.9375 65.777344 170.835938 65.542969 171.722656 C 65.171875 173.128906 65.195312 174.519531 65.394531 175.921875 C 65.46875 176.460938 65.574219 177.003906 65.699219 177.550781 Z M 62.96875 164.769531 L 62.039062 172.039062 C 61.929688 171.023438 61.921875 170.019531 62.007812 169.03125 C 62.128906 167.597656 62.441406 166.199219 62.96875 164.769531 Z M 62.335938 173.832031 L 63.722656 163.007812 C 64.074219 162.273438 64.476562 161.53125 64.890625 160.777344 L 62.953125 175.898438 C 62.824219 175.539062 62.699219 175.179688 62.59375 174.816406 C 62.496094 174.488281 62.410156 174.160156 62.335938 173.832031 Z M 73.316406 150.421875 L 71.851562 161.851562 C 71.765625 162.011719 71.675781 162.167969 71.582031 162.320312 C 71.320312 162.753906 71.046875 163.171875 70.757812 163.578125 L 72.644531 148.863281 C 72.800781 149.175781 72.949219 149.492188 73.082031 149.808594 C 73.167969 150.011719 73.246094 150.214844 73.316406 150.421875 Z M 72.5625 160.4375 L 73.683594 151.671875 C 74.003906 153.066406 74.058594 154.5 73.859375 155.984375 C 73.660156 157.464844 73.203125 158.996094 72.5625 160.4375 Z M 72.21875 148.082031 L 70.121094 164.441406 C 69.777344 164.890625 69.429688 165.324219 69.089844 165.746094 L 71.5 146.9375 C 71.75 147.3125 71.992188 147.691406 72.21875 148.082031 Z M 71.058594 146.292969 L 68.464844 166.53125 C 68.238281 166.816406 68.015625 167.101562 67.808594 167.378906 C 67.65625 167.582031 67.511719 167.785156 67.371094 167.988281 L 70.285156 145.257812 C 70.542969 145.589844 70.800781 145.9375 71.058594 146.292969 Z M 68.574219 143.167969 L 68.257812 145.675781 C 68.0625 144.980469 67.835938 144.3125 67.605469 143.710938 L 67.789062 142.261719 C 68.035156 142.542969 68.300781 142.84375 68.574219 143.167969 Z M 66.773438 157.25 L 64.066406 178.386719 C 63.8125 177.902344 63.574219 177.402344 63.355469 176.890625 L 65.574219 159.539062 C 65.953125 158.855469 66.324219 158.167969 66.660156 157.480469 C 66.699219 157.40625 66.734375 157.328125 66.773438 157.25 Z M 67.328125 141.75 L 67.203125 142.726562 C 66.742188 141.660156 66.339844 140.949219 66.136719 140.59375 C 65.929688 140.222656 65.929688 140.222656 66.515625 140.859375 C 66.722656 141.085938 67 141.382812 67.328125 141.75 " fill-opacity="1" fill-rule="evenodd"/></g></g></g></g></svg>